<mxfile host="Electron" agent="Mozilla/5.0 (Windows NT 10.0; Win64; x64) AppleWebKit/537.36 (KHTML, like Gecko) draw.io/28.0.4 Chrome/138.0.7204.97 Electron/37.2.1 Safari/537.36" version="28.0.4">
  <diagram name="Page-1" id="JzL-r5vW0yJOW3stXGnU">
    <mxGraphModel dx="8720" dy="5370" grid="1" gridSize="10" guides="1" tooltips="1" connect="1" arrows="1" fold="1" page="1" pageScale="1" pageWidth="850" pageHeight="1100" math="0" shadow="0">
      <root>
        <mxCell id="0" />
        <mxCell id="1" parent="0" />
        <mxCell id="8kG_UziqjUuAXPetrYoP-1" value="&lt;font style=&quot;font-size: 20px;&quot;&gt;&lt;b&gt;EER Diagram&lt;/b&gt;&lt;/font&gt;" style="text;html=1;whiteSpace=wrap;overflow=hidden;rounded=0;" vertex="1" parent="1">
          <mxGeometry x="455" y="240" width="130" height="50" as="geometry" />
        </mxCell>
        <mxCell id="8kG_UziqjUuAXPetrYoP-2" value="1" style="edgeStyle=orthogonalEdgeStyle;rounded=0;orthogonalLoop=1;jettySize=auto;html=1;entryX=0.5;entryY=0;entryDx=0;entryDy=0;" edge="1" parent="1" source="8kG_UziqjUuAXPetrYoP-3" target="8kG_UziqjUuAXPetrYoP-46">
          <mxGeometry relative="1" as="geometry" />
        </mxCell>
        <mxCell id="8kG_UziqjUuAXPetrYoP-3" value="userInfo" style="rounded=1;arcSize=10;whiteSpace=wrap;html=1;align=center;" vertex="1" parent="1">
          <mxGeometry x="610" y="1160" width="100" height="40" as="geometry" />
        </mxCell>
        <mxCell id="8kG_UziqjUuAXPetrYoP-4" value="userID" style="ellipse;whiteSpace=wrap;html=1;align=center;fontStyle=4;" vertex="1" parent="1">
          <mxGeometry x="600" y="1090" width="70" height="40" as="geometry" />
        </mxCell>
        <mxCell id="8kG_UziqjUuAXPetrYoP-5" value="name" style="ellipse;whiteSpace=wrap;html=1;align=center;" vertex="1" parent="1">
          <mxGeometry x="680" y="1090" width="100" height="40" as="geometry" />
        </mxCell>
        <mxCell id="8kG_UziqjUuAXPetrYoP-6" value="lname" style="ellipse;whiteSpace=wrap;html=1;align=center;" vertex="1" parent="1">
          <mxGeometry x="810" y="1080" width="100" height="40" as="geometry" />
        </mxCell>
        <mxCell id="8kG_UziqjUuAXPetrYoP-7" value="fname" style="ellipse;whiteSpace=wrap;html=1;align=center;" vertex="1" parent="1">
          <mxGeometry x="740" y="1030" width="100" height="40" as="geometry" />
        </mxCell>
        <mxCell id="8kG_UziqjUuAXPetrYoP-8" value="DOB" style="ellipse;whiteSpace=wrap;html=1;align=center;" vertex="1" parent="1">
          <mxGeometry x="520" y="1160" width="60" height="40" as="geometry" />
        </mxCell>
        <mxCell id="8kG_UziqjUuAXPetrYoP-9" value="address" style="ellipse;whiteSpace=wrap;html=1;align=center;" vertex="1" parent="1">
          <mxGeometry x="520" y="1110" width="70" height="40" as="geometry" />
        </mxCell>
        <mxCell id="8kG_UziqjUuAXPetrYoP-10" value="city" style="ellipse;whiteSpace=wrap;html=1;align=center;" vertex="1" parent="1">
          <mxGeometry x="500" y="1300" width="60" height="40" as="geometry" />
        </mxCell>
        <mxCell id="8kG_UziqjUuAXPetrYoP-11" value="province" style="ellipse;whiteSpace=wrap;html=1;align=center;" vertex="1" parent="1">
          <mxGeometry x="520" y="1220" width="70" height="40" as="geometry" />
        </mxCell>
        <mxCell id="8kG_UziqjUuAXPetrYoP-12" value="" style="endArrow=none;html=1;rounded=0;entryX=0;entryY=0;entryDx=0;entryDy=0;" edge="1" parent="1" source="8kG_UziqjUuAXPetrYoP-9" target="8kG_UziqjUuAXPetrYoP-3">
          <mxGeometry width="50" height="50" relative="1" as="geometry">
            <mxPoint x="510" y="1500" as="sourcePoint" />
            <mxPoint x="560" y="1450" as="targetPoint" />
          </mxGeometry>
        </mxCell>
        <mxCell id="8kG_UziqjUuAXPetrYoP-13" value="" style="endArrow=none;html=1;rounded=0;" edge="1" parent="1" source="8kG_UziqjUuAXPetrYoP-3" target="8kG_UziqjUuAXPetrYoP-8">
          <mxGeometry width="50" height="50" relative="1" as="geometry">
            <mxPoint x="580" y="1480" as="sourcePoint" />
            <mxPoint x="630" y="1430" as="targetPoint" />
          </mxGeometry>
        </mxCell>
        <mxCell id="8kG_UziqjUuAXPetrYoP-14" value="" style="endArrow=none;html=1;rounded=0;" edge="1" parent="1" source="8kG_UziqjUuAXPetrYoP-3" target="8kG_UziqjUuAXPetrYoP-11">
          <mxGeometry width="50" height="50" relative="1" as="geometry">
            <mxPoint x="630" y="1450" as="sourcePoint" />
            <mxPoint x="680" y="1400" as="targetPoint" />
          </mxGeometry>
        </mxCell>
        <mxCell id="8kG_UziqjUuAXPetrYoP-15" value="" style="endArrow=none;html=1;rounded=0;" edge="1" parent="1" source="8kG_UziqjUuAXPetrYoP-3" target="8kG_UziqjUuAXPetrYoP-10">
          <mxGeometry width="50" height="50" relative="1" as="geometry">
            <mxPoint x="710" y="1440" as="sourcePoint" />
            <mxPoint x="760" y="1390" as="targetPoint" />
          </mxGeometry>
        </mxCell>
        <mxCell id="8kG_UziqjUuAXPetrYoP-16" value="" style="endArrow=none;html=1;rounded=0;" edge="1" parent="1" source="8kG_UziqjUuAXPetrYoP-3" target="8kG_UziqjUuAXPetrYoP-4">
          <mxGeometry width="50" height="50" relative="1" as="geometry">
            <mxPoint x="540" y="1470" as="sourcePoint" />
            <mxPoint x="590" y="1420" as="targetPoint" />
          </mxGeometry>
        </mxCell>
        <mxCell id="8kG_UziqjUuAXPetrYoP-17" value="" style="endArrow=none;html=1;rounded=0;" edge="1" parent="1" source="8kG_UziqjUuAXPetrYoP-3" target="8kG_UziqjUuAXPetrYoP-5">
          <mxGeometry width="50" height="50" relative="1" as="geometry">
            <mxPoint x="650" y="1510" as="sourcePoint" />
            <mxPoint x="700" y="1460" as="targetPoint" />
          </mxGeometry>
        </mxCell>
        <mxCell id="8kG_UziqjUuAXPetrYoP-18" value="" style="endArrow=none;html=1;rounded=0;" edge="1" parent="1" source="8kG_UziqjUuAXPetrYoP-5" target="8kG_UziqjUuAXPetrYoP-7">
          <mxGeometry width="50" height="50" relative="1" as="geometry">
            <mxPoint x="710" y="1420" as="sourcePoint" />
            <mxPoint x="760" y="1370" as="targetPoint" />
          </mxGeometry>
        </mxCell>
        <mxCell id="8kG_UziqjUuAXPetrYoP-19" value="" style="endArrow=none;html=1;rounded=0;" edge="1" parent="1" source="8kG_UziqjUuAXPetrYoP-5" target="8kG_UziqjUuAXPetrYoP-6">
          <mxGeometry width="50" height="50" relative="1" as="geometry">
            <mxPoint x="640" y="1480" as="sourcePoint" />
            <mxPoint x="690" y="1430" as="targetPoint" />
          </mxGeometry>
        </mxCell>
        <mxCell id="8kG_UziqjUuAXPetrYoP-20" value="contactNo" style="ellipse;whiteSpace=wrap;html=1;align=center;" vertex="1" parent="1">
          <mxGeometry x="670" y="1280" width="70" height="40" as="geometry" />
        </mxCell>
        <mxCell id="8kG_UziqjUuAXPetrYoP-21" value="NIC" style="ellipse;whiteSpace=wrap;html=1;align=center;" vertex="1" parent="1">
          <mxGeometry x="580" y="1300" width="70" height="40" as="geometry" />
        </mxCell>
        <mxCell id="8kG_UziqjUuAXPetrYoP-22" value="" style="endArrow=none;html=1;rounded=0;" edge="1" parent="1" source="8kG_UziqjUuAXPetrYoP-3" target="8kG_UziqjUuAXPetrYoP-21">
          <mxGeometry width="50" height="50" relative="1" as="geometry">
            <mxPoint x="500" y="1560" as="sourcePoint" />
            <mxPoint x="550" y="1510" as="targetPoint" />
          </mxGeometry>
        </mxCell>
        <mxCell id="8kG_UziqjUuAXPetrYoP-23" value="" style="endArrow=none;html=1;rounded=0;" edge="1" parent="1" source="8kG_UziqjUuAXPetrYoP-3" target="8kG_UziqjUuAXPetrYoP-20">
          <mxGeometry width="50" height="50" relative="1" as="geometry">
            <mxPoint x="700" y="1500" as="sourcePoint" />
            <mxPoint x="750" y="1450" as="targetPoint" />
          </mxGeometry>
        </mxCell>
        <mxCell id="8kG_UziqjUuAXPetrYoP-24" value="streetName" style="ellipse;whiteSpace=wrap;html=1;align=center;" vertex="1" parent="1">
          <mxGeometry x="735" y="1240" width="80" height="40" as="geometry" />
        </mxCell>
        <mxCell id="8kG_UziqjUuAXPetrYoP-25" value="" style="endArrow=none;html=1;rounded=0;" edge="1" parent="1" source="8kG_UziqjUuAXPetrYoP-3" target="8kG_UziqjUuAXPetrYoP-24">
          <mxGeometry width="50" height="50" relative="1" as="geometry">
            <mxPoint x="760" y="1420" as="sourcePoint" />
            <mxPoint x="810" y="1370" as="targetPoint" />
          </mxGeometry>
        </mxCell>
        <mxCell id="8kG_UziqjUuAXPetrYoP-26" value="1" style="edgeStyle=orthogonalEdgeStyle;rounded=0;orthogonalLoop=1;jettySize=auto;html=1;entryX=0.5;entryY=0;entryDx=0;entryDy=0;" edge="1" parent="1" source="8kG_UziqjUuAXPetrYoP-30" target="8kG_UziqjUuAXPetrYoP-65">
          <mxGeometry relative="1" as="geometry">
            <Array as="points">
              <mxPoint x="1000" y="1550" />
            </Array>
          </mxGeometry>
        </mxCell>
        <mxCell id="8kG_UziqjUuAXPetrYoP-27" value="1" style="edgeStyle=orthogonalEdgeStyle;rounded=0;orthogonalLoop=1;jettySize=auto;html=1;entryX=0.5;entryY=0;entryDx=0;entryDy=0;" edge="1" parent="1" source="8kG_UziqjUuAXPetrYoP-30" target="8kG_UziqjUuAXPetrYoP-153">
          <mxGeometry relative="1" as="geometry">
            <Array as="points">
              <mxPoint x="700" y="1650" />
              <mxPoint x="420" y="1650" />
            </Array>
          </mxGeometry>
        </mxCell>
        <mxCell id="8kG_UziqjUuAXPetrYoP-28" value="1" style="edgeStyle=orthogonalEdgeStyle;rounded=0;orthogonalLoop=1;jettySize=auto;html=1;entryX=0.5;entryY=0;entryDx=0;entryDy=0;" edge="1" parent="1" source="8kG_UziqjUuAXPetrYoP-30" target="8kG_UziqjUuAXPetrYoP-155">
          <mxGeometry relative="1" as="geometry">
            <Array as="points">
              <mxPoint x="720" y="1670" />
              <mxPoint x="520" y="1670" />
            </Array>
          </mxGeometry>
        </mxCell>
        <mxCell id="8kG_UziqjUuAXPetrYoP-29" value="1" style="edgeStyle=orthogonalEdgeStyle;rounded=0;orthogonalLoop=1;jettySize=auto;html=1;entryX=0.5;entryY=1;entryDx=0;entryDy=0;" edge="1" parent="1" source="8kG_UziqjUuAXPetrYoP-30" target="8kG_UziqjUuAXPetrYoP-157">
          <mxGeometry relative="1" as="geometry">
            <Array as="points">
              <mxPoint x="730" y="1490" />
              <mxPoint x="895" y="1490" />
            </Array>
          </mxGeometry>
        </mxCell>
        <mxCell id="8kG_UziqjUuAXPetrYoP-30" value="userAcc" style="rounded=1;arcSize=10;whiteSpace=wrap;html=1;align=center;" vertex="1" parent="1">
          <mxGeometry x="680" y="1515" width="100" height="40" as="geometry" />
        </mxCell>
        <mxCell id="8kG_UziqjUuAXPetrYoP-31" value="password" style="ellipse;whiteSpace=wrap;html=1;align=center;" vertex="1" parent="1">
          <mxGeometry x="750" y="1610" width="80" height="40" as="geometry" />
        </mxCell>
        <mxCell id="8kG_UziqjUuAXPetrYoP-32" value="accountID" style="ellipse;whiteSpace=wrap;html=1;align=center;fontStyle=4;" vertex="1" parent="1">
          <mxGeometry x="540" y="1425" width="100" height="40" as="geometry" />
        </mxCell>
        <mxCell id="8kG_UziqjUuAXPetrYoP-33" value="createdDateTime" style="ellipse;whiteSpace=wrap;html=1;align=center;" vertex="1" parent="1">
          <mxGeometry x="660" y="1400" width="110" height="40" as="geometry" />
        </mxCell>
        <mxCell id="8kG_UziqjUuAXPetrYoP-34" value="status(online/offline)" style="ellipse;whiteSpace=wrap;html=1;align=center;" vertex="1" parent="1">
          <mxGeometry x="360" y="1430" width="140" height="70" as="geometry" />
        </mxCell>
        <mxCell id="8kG_UziqjUuAXPetrYoP-35" value="accStatus&lt;div&gt;(active/removed/pause)&lt;/div&gt;" style="ellipse;whiteSpace=wrap;html=1;align=center;" vertex="1" parent="1">
          <mxGeometry x="420" y="1510" width="140" height="60" as="geometry" />
        </mxCell>
        <mxCell id="8kG_UziqjUuAXPetrYoP-36" value="lastActiveTime" style="ellipse;whiteSpace=wrap;html=1;align=center;" vertex="1" parent="1">
          <mxGeometry x="410" y="1590" width="100" height="40" as="geometry" />
        </mxCell>
        <mxCell id="8kG_UziqjUuAXPetrYoP-37" value="" style="endArrow=none;html=1;rounded=0;" edge="1" parent="1" source="8kG_UziqjUuAXPetrYoP-30" target="8kG_UziqjUuAXPetrYoP-32">
          <mxGeometry width="50" height="50" relative="1" as="geometry">
            <mxPoint x="810" y="1770" as="sourcePoint" />
            <mxPoint x="860" y="1720" as="targetPoint" />
          </mxGeometry>
        </mxCell>
        <mxCell id="8kG_UziqjUuAXPetrYoP-38" value="" style="endArrow=none;html=1;rounded=0;" edge="1" parent="1" source="8kG_UziqjUuAXPetrYoP-30" target="8kG_UziqjUuAXPetrYoP-34">
          <mxGeometry width="50" height="50" relative="1" as="geometry">
            <mxPoint x="610" y="1770" as="sourcePoint" />
            <mxPoint x="660" y="1720" as="targetPoint" />
          </mxGeometry>
        </mxCell>
        <mxCell id="8kG_UziqjUuAXPetrYoP-39" value="" style="endArrow=none;html=1;rounded=0;" edge="1" parent="1" source="8kG_UziqjUuAXPetrYoP-30" target="8kG_UziqjUuAXPetrYoP-35">
          <mxGeometry width="50" height="50" relative="1" as="geometry">
            <mxPoint x="780" y="1780" as="sourcePoint" />
            <mxPoint x="830" y="1730" as="targetPoint" />
          </mxGeometry>
        </mxCell>
        <mxCell id="8kG_UziqjUuAXPetrYoP-40" value="" style="endArrow=none;html=1;rounded=0;" edge="1" parent="1" source="8kG_UziqjUuAXPetrYoP-30" target="8kG_UziqjUuAXPetrYoP-31">
          <mxGeometry width="50" height="50" relative="1" as="geometry">
            <mxPoint x="680" y="1830" as="sourcePoint" />
            <mxPoint x="730" y="1780" as="targetPoint" />
          </mxGeometry>
        </mxCell>
        <mxCell id="8kG_UziqjUuAXPetrYoP-41" value="" style="endArrow=none;html=1;rounded=0;" edge="1" parent="1" source="8kG_UziqjUuAXPetrYoP-30" target="8kG_UziqjUuAXPetrYoP-36">
          <mxGeometry width="50" height="50" relative="1" as="geometry">
            <mxPoint x="700" y="1800" as="sourcePoint" />
            <mxPoint x="750" y="1750" as="targetPoint" />
          </mxGeometry>
        </mxCell>
        <mxCell id="8kG_UziqjUuAXPetrYoP-42" value="" style="endArrow=none;html=1;rounded=0;" edge="1" parent="1" source="8kG_UziqjUuAXPetrYoP-30" target="8kG_UziqjUuAXPetrYoP-44">
          <mxGeometry width="50" height="50" relative="1" as="geometry">
            <mxPoint x="710" y="1830" as="sourcePoint" />
            <mxPoint x="730.0000000000002" y="1610" as="targetPoint" />
          </mxGeometry>
        </mxCell>
        <mxCell id="8kG_UziqjUuAXPetrYoP-43" value="" style="endArrow=none;html=1;rounded=0;" edge="1" parent="1" source="8kG_UziqjUuAXPetrYoP-30" target="8kG_UziqjUuAXPetrYoP-33">
          <mxGeometry width="50" height="50" relative="1" as="geometry">
            <mxPoint x="720" y="1820" as="sourcePoint" />
            <mxPoint x="770" y="1770" as="targetPoint" />
          </mxGeometry>
        </mxCell>
        <mxCell id="8kG_UziqjUuAXPetrYoP-44" value="email" style="ellipse;whiteSpace=wrap;html=1;align=center;" vertex="1" parent="1">
          <mxGeometry x="860" y="1595" width="70" height="40" as="geometry" />
        </mxCell>
        <mxCell id="8kG_UziqjUuAXPetrYoP-45" value="1" style="edgeStyle=orthogonalEdgeStyle;rounded=0;orthogonalLoop=1;jettySize=auto;html=1;entryX=1;entryY=0.5;entryDx=0;entryDy=0;" edge="1" parent="1" source="8kG_UziqjUuAXPetrYoP-46" target="8kG_UziqjUuAXPetrYoP-30">
          <mxGeometry relative="1" as="geometry">
            <Array as="points">
              <mxPoint x="1110" y="1535" />
            </Array>
          </mxGeometry>
        </mxCell>
        <mxCell id="8kG_UziqjUuAXPetrYoP-46" value="logedIn" style="shape=rhombus;perimeter=rhombusPerimeter;whiteSpace=wrap;html=1;align=center;" vertex="1" parent="1">
          <mxGeometry x="1050" y="1320" width="120" height="60" as="geometry" />
        </mxCell>
        <mxCell id="8kG_UziqjUuAXPetrYoP-47" value="1" style="edgeStyle=orthogonalEdgeStyle;rounded=0;orthogonalLoop=1;jettySize=auto;html=1;entryX=1;entryY=0.5;entryDx=0;entryDy=0;" edge="1" parent="1" source="8kG_UziqjUuAXPetrYoP-48" target="8kG_UziqjUuAXPetrYoP-63">
          <mxGeometry relative="1" as="geometry">
            <mxPoint x="1100" y="1870" as="targetPoint" />
            <Array as="points">
              <mxPoint x="1225" y="1840" />
              <mxPoint x="1225" y="1860" />
            </Array>
          </mxGeometry>
        </mxCell>
        <mxCell id="8kG_UziqjUuAXPetrYoP-48" value="roles" style="rounded=1;arcSize=10;whiteSpace=wrap;html=1;align=center;" vertex="1" parent="1">
          <mxGeometry x="1380" y="1805" width="100" height="40" as="geometry" />
        </mxCell>
        <mxCell id="8kG_UziqjUuAXPetrYoP-49" value="roleID" style="ellipse;whiteSpace=wrap;html=1;align=center;fontStyle=4;" vertex="1" parent="1">
          <mxGeometry x="1180" y="1750" width="100" height="40" as="geometry" />
        </mxCell>
        <mxCell id="8kG_UziqjUuAXPetrYoP-50" value="roleName" style="ellipse;whiteSpace=wrap;html=1;align=center;" vertex="1" parent="1">
          <mxGeometry x="1330" y="1740" width="100" height="40" as="geometry" />
        </mxCell>
        <mxCell id="8kG_UziqjUuAXPetrYoP-51" value="description" style="ellipse;whiteSpace=wrap;html=1;align=center;" vertex="1" parent="1">
          <mxGeometry x="1280" y="1890" width="100" height="40" as="geometry" />
        </mxCell>
        <mxCell id="8kG_UziqjUuAXPetrYoP-52" value="accessLevel&lt;div&gt;(full/partial)&lt;/div&gt;" style="ellipse;whiteSpace=wrap;html=1;align=center;" vertex="1" parent="1">
          <mxGeometry x="1400" y="1910" width="100" height="60" as="geometry" />
        </mxCell>
        <mxCell id="8kG_UziqjUuAXPetrYoP-53" value="" style="endArrow=none;html=1;rounded=0;" edge="1" parent="1" source="8kG_UziqjUuAXPetrYoP-48" target="8kG_UziqjUuAXPetrYoP-49">
          <mxGeometry width="50" height="50" relative="1" as="geometry">
            <mxPoint x="1440" y="2130" as="sourcePoint" />
            <mxPoint x="1490" y="2080" as="targetPoint" />
          </mxGeometry>
        </mxCell>
        <mxCell id="8kG_UziqjUuAXPetrYoP-54" value="" style="endArrow=none;html=1;rounded=0;" edge="1" parent="1" source="8kG_UziqjUuAXPetrYoP-48" target="8kG_UziqjUuAXPetrYoP-50">
          <mxGeometry width="50" height="50" relative="1" as="geometry">
            <mxPoint x="1200" y="2100" as="sourcePoint" />
            <mxPoint x="1250" y="2050" as="targetPoint" />
          </mxGeometry>
        </mxCell>
        <mxCell id="8kG_UziqjUuAXPetrYoP-55" value="" style="endArrow=none;html=1;rounded=0;" edge="1" parent="1" source="8kG_UziqjUuAXPetrYoP-51" target="8kG_UziqjUuAXPetrYoP-48">
          <mxGeometry width="50" height="50" relative="1" as="geometry">
            <mxPoint x="1210" y="2150" as="sourcePoint" />
            <mxPoint x="1260" y="2100" as="targetPoint" />
          </mxGeometry>
        </mxCell>
        <mxCell id="8kG_UziqjUuAXPetrYoP-56" value="" style="endArrow=none;html=1;rounded=0;" edge="1" parent="1" source="8kG_UziqjUuAXPetrYoP-52" target="8kG_UziqjUuAXPetrYoP-48">
          <mxGeometry width="50" height="50" relative="1" as="geometry">
            <mxPoint x="1440" y="2140" as="sourcePoint" />
            <mxPoint x="1490" y="2090" as="targetPoint" />
          </mxGeometry>
        </mxCell>
        <mxCell id="8kG_UziqjUuAXPetrYoP-57" value="assignedRoles" style="rounded=1;arcSize=10;whiteSpace=wrap;html=1;align=center;" vertex="1" parent="1">
          <mxGeometry x="635" y="1870" width="100" height="40" as="geometry" />
        </mxCell>
        <mxCell id="8kG_UziqjUuAXPetrYoP-58" value="ID" style="ellipse;whiteSpace=wrap;html=1;align=center;fontStyle=4;" vertex="1" parent="1">
          <mxGeometry x="550" y="1815" width="80" height="40" as="geometry" />
        </mxCell>
        <mxCell id="8kG_UziqjUuAXPetrYoP-59" value="assignedDate" style="ellipse;whiteSpace=wrap;html=1;align=center;" vertex="1" parent="1">
          <mxGeometry x="640" y="1750" width="100" height="40" as="geometry" />
        </mxCell>
        <mxCell id="8kG_UziqjUuAXPetrYoP-60" value="" style="endArrow=none;html=1;rounded=0;" edge="1" parent="1" source="8kG_UziqjUuAXPetrYoP-57" target="8kG_UziqjUuAXPetrYoP-59">
          <mxGeometry width="50" height="50" relative="1" as="geometry">
            <mxPoint x="580" y="2040" as="sourcePoint" />
            <mxPoint x="630" y="1990" as="targetPoint" />
          </mxGeometry>
        </mxCell>
        <mxCell id="8kG_UziqjUuAXPetrYoP-61" value="" style="endArrow=none;html=1;rounded=0;" edge="1" parent="1" source="8kG_UziqjUuAXPetrYoP-57" target="8kG_UziqjUuAXPetrYoP-58">
          <mxGeometry width="50" height="50" relative="1" as="geometry">
            <mxPoint x="570" y="2030" as="sourcePoint" />
            <mxPoint x="620" y="1980" as="targetPoint" />
          </mxGeometry>
        </mxCell>
        <mxCell id="8kG_UziqjUuAXPetrYoP-62" value="M" style="edgeStyle=orthogonalEdgeStyle;rounded=0;orthogonalLoop=1;jettySize=auto;html=1;entryX=1;entryY=0.5;entryDx=0;entryDy=0;" edge="1" parent="1" source="8kG_UziqjUuAXPetrYoP-63" target="8kG_UziqjUuAXPetrYoP-57">
          <mxGeometry relative="1" as="geometry" />
        </mxCell>
        <mxCell id="8kG_UziqjUuAXPetrYoP-63" value="access to" style="shape=rhombus;perimeter=rhombusPerimeter;whiteSpace=wrap;html=1;align=center;" vertex="1" parent="1">
          <mxGeometry x="950" y="1830" width="120" height="60" as="geometry" />
        </mxCell>
        <mxCell id="8kG_UziqjUuAXPetrYoP-64" value="1" style="edgeStyle=orthogonalEdgeStyle;rounded=0;orthogonalLoop=1;jettySize=auto;html=1;entryX=1;entryY=0;entryDx=0;entryDy=0;" edge="1" parent="1" source="8kG_UziqjUuAXPetrYoP-65" target="8kG_UziqjUuAXPetrYoP-57">
          <mxGeometry relative="1" as="geometry">
            <Array as="points">
              <mxPoint x="800" y="1690" />
              <mxPoint x="800" y="1870" />
            </Array>
          </mxGeometry>
        </mxCell>
        <mxCell id="8kG_UziqjUuAXPetrYoP-65" value="assignedTo" style="shape=rhombus;perimeter=rhombusPerimeter;whiteSpace=wrap;html=1;align=center;" vertex="1" parent="1">
          <mxGeometry x="940" y="1660" width="120" height="60" as="geometry" />
        </mxCell>
        <mxCell id="8kG_UziqjUuAXPetrYoP-66" value="1" style="edgeStyle=orthogonalEdgeStyle;rounded=0;orthogonalLoop=1;jettySize=auto;html=1;entryX=1;entryY=0.5;entryDx=0;entryDy=0;" edge="1" parent="1" source="8kG_UziqjUuAXPetrYoP-67" target="8kG_UziqjUuAXPetrYoP-87">
          <mxGeometry relative="1" as="geometry" />
        </mxCell>
        <mxCell id="8kG_UziqjUuAXPetrYoP-67" value="admin" style="rounded=1;arcSize=10;whiteSpace=wrap;html=1;align=center;" vertex="1" parent="1">
          <mxGeometry x="1380" y="1490" width="100" height="40" as="geometry" />
        </mxCell>
        <mxCell id="8kG_UziqjUuAXPetrYoP-68" value="adminID" style="ellipse;whiteSpace=wrap;html=1;align=center;fontStyle=4;" vertex="1" parent="1">
          <mxGeometry x="1260" y="1420" width="100" height="40" as="geometry" />
        </mxCell>
        <mxCell id="8kG_UziqjUuAXPetrYoP-69" value="username" style="ellipse;whiteSpace=wrap;html=1;align=center;" vertex="1" parent="1">
          <mxGeometry x="1370" y="1390" width="100" height="40" as="geometry" />
        </mxCell>
        <mxCell id="8kG_UziqjUuAXPetrYoP-70" value="password" style="ellipse;whiteSpace=wrap;html=1;align=center;" vertex="1" parent="1">
          <mxGeometry x="1490" y="1420" width="100" height="40" as="geometry" />
        </mxCell>
        <mxCell id="8kG_UziqjUuAXPetrYoP-71" value="name" style="ellipse;whiteSpace=wrap;html=1;align=center;" vertex="1" parent="1">
          <mxGeometry x="1580" y="1460" width="100" height="40" as="geometry" />
        </mxCell>
        <mxCell id="8kG_UziqjUuAXPetrYoP-72" value="lname" style="ellipse;whiteSpace=wrap;html=1;align=center;" vertex="1" parent="1">
          <mxGeometry x="1730" y="1500" width="100" height="40" as="geometry" />
        </mxCell>
        <mxCell id="8kG_UziqjUuAXPetrYoP-73" value="fname" style="ellipse;whiteSpace=wrap;html=1;align=center;" vertex="1" parent="1">
          <mxGeometry x="1730" y="1420" width="100" height="40" as="geometry" />
        </mxCell>
        <mxCell id="8kG_UziqjUuAXPetrYoP-74" value="" style="endArrow=none;html=1;rounded=0;exitX=1.004;exitY=0.379;exitDx=0;exitDy=0;exitPerimeter=0;" edge="1" parent="1" source="8kG_UziqjUuAXPetrYoP-67" target="8kG_UziqjUuAXPetrYoP-71">
          <mxGeometry width="50" height="50" relative="1" as="geometry">
            <mxPoint x="1580" y="1530" as="sourcePoint" />
            <mxPoint x="1600" y="1830" as="targetPoint" />
          </mxGeometry>
        </mxCell>
        <mxCell id="8kG_UziqjUuAXPetrYoP-75" value="" style="endArrow=none;html=1;rounded=0;" edge="1" parent="1" source="8kG_UziqjUuAXPetrYoP-71" target="8kG_UziqjUuAXPetrYoP-73">
          <mxGeometry width="50" height="50" relative="1" as="geometry">
            <mxPoint x="1610" y="1790" as="sourcePoint" />
            <mxPoint x="1660" y="1740" as="targetPoint" />
          </mxGeometry>
        </mxCell>
        <mxCell id="8kG_UziqjUuAXPetrYoP-76" value="" style="endArrow=none;html=1;rounded=0;" edge="1" parent="1" source="8kG_UziqjUuAXPetrYoP-71" target="8kG_UziqjUuAXPetrYoP-72">
          <mxGeometry width="50" height="50" relative="1" as="geometry">
            <mxPoint x="1540" y="1850" as="sourcePoint" />
            <mxPoint x="1590" y="1800" as="targetPoint" />
          </mxGeometry>
        </mxCell>
        <mxCell id="8kG_UziqjUuAXPetrYoP-77" value="address" style="ellipse;whiteSpace=wrap;html=1;align=center;" vertex="1" parent="1">
          <mxGeometry x="1360" y="1610" width="80" height="40" as="geometry" />
        </mxCell>
        <mxCell id="8kG_UziqjUuAXPetrYoP-78" value="contactNo" style="ellipse;whiteSpace=wrap;html=1;align=center;" vertex="1" parent="1">
          <mxGeometry x="1520" y="1550" width="100" height="40" as="geometry" />
        </mxCell>
        <mxCell id="8kG_UziqjUuAXPetrYoP-79" value="joinedDate" style="ellipse;whiteSpace=wrap;html=1;align=center;" vertex="1" parent="1">
          <mxGeometry x="1480" y="1620" width="100" height="40" as="geometry" />
        </mxCell>
        <mxCell id="8kG_UziqjUuAXPetrYoP-80" value="" style="endArrow=none;html=1;rounded=0;" edge="1" parent="1" source="8kG_UziqjUuAXPetrYoP-77" target="8kG_UziqjUuAXPetrYoP-67">
          <mxGeometry width="50" height="50" relative="1" as="geometry">
            <mxPoint x="1270" y="1630" as="sourcePoint" />
            <mxPoint x="1320" y="1580" as="targetPoint" />
          </mxGeometry>
        </mxCell>
        <mxCell id="8kG_UziqjUuAXPetrYoP-81" value="" style="endArrow=none;html=1;rounded=0;" edge="1" parent="1" source="8kG_UziqjUuAXPetrYoP-67" target="8kG_UziqjUuAXPetrYoP-79">
          <mxGeometry width="50" height="50" relative="1" as="geometry">
            <mxPoint x="1300" y="1740" as="sourcePoint" />
            <mxPoint x="1350" y="1690" as="targetPoint" />
          </mxGeometry>
        </mxCell>
        <mxCell id="8kG_UziqjUuAXPetrYoP-82" value="" style="endArrow=none;html=1;rounded=0;" edge="1" parent="1" source="8kG_UziqjUuAXPetrYoP-67" target="8kG_UziqjUuAXPetrYoP-78">
          <mxGeometry width="50" height="50" relative="1" as="geometry">
            <mxPoint x="1530" y="1760" as="sourcePoint" />
            <mxPoint x="1580" y="1710" as="targetPoint" />
          </mxGeometry>
        </mxCell>
        <mxCell id="8kG_UziqjUuAXPetrYoP-83" value="" style="endArrow=none;html=1;rounded=0;" edge="1" parent="1" source="8kG_UziqjUuAXPetrYoP-67" target="8kG_UziqjUuAXPetrYoP-68">
          <mxGeometry width="50" height="50" relative="1" as="geometry">
            <mxPoint x="1200" y="1690" as="sourcePoint" />
            <mxPoint x="1250" y="1640" as="targetPoint" />
          </mxGeometry>
        </mxCell>
        <mxCell id="8kG_UziqjUuAXPetrYoP-84" value="" style="endArrow=none;html=1;rounded=0;" edge="1" parent="1" source="8kG_UziqjUuAXPetrYoP-67" target="8kG_UziqjUuAXPetrYoP-69">
          <mxGeometry width="50" height="50" relative="1" as="geometry">
            <mxPoint x="1230" y="1690" as="sourcePoint" />
            <mxPoint x="1280" y="1640" as="targetPoint" />
          </mxGeometry>
        </mxCell>
        <mxCell id="8kG_UziqjUuAXPetrYoP-85" value="" style="endArrow=none;html=1;rounded=0;" edge="1" parent="1" source="8kG_UziqjUuAXPetrYoP-67" target="8kG_UziqjUuAXPetrYoP-70">
          <mxGeometry width="50" height="50" relative="1" as="geometry">
            <mxPoint x="1160" y="1730" as="sourcePoint" />
            <mxPoint x="1210" y="1680" as="targetPoint" />
          </mxGeometry>
        </mxCell>
        <mxCell id="8kG_UziqjUuAXPetrYoP-86" value="1" style="edgeStyle=orthogonalEdgeStyle;rounded=0;orthogonalLoop=1;jettySize=auto;html=1;" edge="1" parent="1">
          <mxGeometry relative="1" as="geometry">
            <mxPoint x="1137" y="1690" as="sourcePoint" />
            <mxPoint x="732" y="1870" as="targetPoint" />
            <Array as="points">
              <mxPoint x="1137" y="1790" />
              <mxPoint x="905" y="1790" />
              <mxPoint x="905" y="1810" />
              <mxPoint x="732" y="1810" />
            </Array>
          </mxGeometry>
        </mxCell>
        <mxCell id="8kG_UziqjUuAXPetrYoP-87" value="assignedTo" style="shape=rhombus;perimeter=rhombusPerimeter;whiteSpace=wrap;html=1;align=center;" vertex="1" parent="1">
          <mxGeometry x="1080" y="1630" width="120" height="60" as="geometry" />
        </mxCell>
        <mxCell id="8kG_UziqjUuAXPetrYoP-88" value="1" style="edgeStyle=orthogonalEdgeStyle;rounded=0;orthogonalLoop=1;jettySize=auto;html=1;entryX=1;entryY=0.5;entryDx=0;entryDy=0;" edge="1" parent="1" source="8kG_UziqjUuAXPetrYoP-91" target="8kG_UziqjUuAXPetrYoP-111">
          <mxGeometry relative="1" as="geometry" />
        </mxCell>
        <mxCell id="8kG_UziqjUuAXPetrYoP-89" value="1" style="edgeStyle=orthogonalEdgeStyle;rounded=0;orthogonalLoop=1;jettySize=auto;html=1;entryX=0.5;entryY=1;entryDx=0;entryDy=0;" edge="1" parent="1" source="8kG_UziqjUuAXPetrYoP-91" target="8kG_UziqjUuAXPetrYoP-140">
          <mxGeometry relative="1" as="geometry" />
        </mxCell>
        <mxCell id="8kG_UziqjUuAXPetrYoP-90" value="1" style="edgeStyle=orthogonalEdgeStyle;rounded=0;orthogonalLoop=1;jettySize=auto;html=1;" edge="1" parent="1" source="8kG_UziqjUuAXPetrYoP-91">
          <mxGeometry relative="1" as="geometry">
            <mxPoint x="300" y="1710" as="targetPoint" />
            <Array as="points">
              <mxPoint x="1170" y="2150" />
              <mxPoint x="301" y="2150" />
              <mxPoint x="301" y="1710" />
            </Array>
          </mxGeometry>
        </mxCell>
        <mxCell id="8kG_UziqjUuAXPetrYoP-91" value="employee" style="rounded=1;arcSize=10;whiteSpace=wrap;html=1;align=center;" vertex="1" parent="1">
          <mxGeometry x="1120" y="2085" width="100" height="40" as="geometry" />
        </mxCell>
        <mxCell id="8kG_UziqjUuAXPetrYoP-92" value="adminID" style="ellipse;whiteSpace=wrap;html=1;align=center;fontStyle=4;" vertex="1" parent="1">
          <mxGeometry x="1000" y="2015" width="100" height="40" as="geometry" />
        </mxCell>
        <mxCell id="8kG_UziqjUuAXPetrYoP-93" value="username" style="ellipse;whiteSpace=wrap;html=1;align=center;" vertex="1" parent="1">
          <mxGeometry x="1110" y="1985" width="100" height="40" as="geometry" />
        </mxCell>
        <mxCell id="8kG_UziqjUuAXPetrYoP-94" value="password" style="ellipse;whiteSpace=wrap;html=1;align=center;" vertex="1" parent="1">
          <mxGeometry x="1230" y="2015" width="100" height="40" as="geometry" />
        </mxCell>
        <mxCell id="8kG_UziqjUuAXPetrYoP-95" value="name" style="ellipse;whiteSpace=wrap;html=1;align=center;" vertex="1" parent="1">
          <mxGeometry x="1320" y="2055" width="100" height="40" as="geometry" />
        </mxCell>
        <mxCell id="8kG_UziqjUuAXPetrYoP-96" value="lname" style="ellipse;whiteSpace=wrap;html=1;align=center;" vertex="1" parent="1">
          <mxGeometry x="1520" y="2040" width="100" height="40" as="geometry" />
        </mxCell>
        <mxCell id="8kG_UziqjUuAXPetrYoP-97" value="fname" style="ellipse;whiteSpace=wrap;html=1;align=center;" vertex="1" parent="1">
          <mxGeometry x="1400" y="2000" width="100" height="40" as="geometry" />
        </mxCell>
        <mxCell id="8kG_UziqjUuAXPetrYoP-98" value="" style="endArrow=none;html=1;rounded=0;exitX=1.004;exitY=0.379;exitDx=0;exitDy=0;exitPerimeter=0;" edge="1" parent="1" source="8kG_UziqjUuAXPetrYoP-91" target="8kG_UziqjUuAXPetrYoP-95">
          <mxGeometry width="50" height="50" relative="1" as="geometry">
            <mxPoint x="1320" y="2125" as="sourcePoint" />
            <mxPoint x="1340" y="2425" as="targetPoint" />
          </mxGeometry>
        </mxCell>
        <mxCell id="8kG_UziqjUuAXPetrYoP-99" value="" style="endArrow=none;html=1;rounded=0;" edge="1" parent="1" source="8kG_UziqjUuAXPetrYoP-95" target="8kG_UziqjUuAXPetrYoP-97">
          <mxGeometry width="50" height="50" relative="1" as="geometry">
            <mxPoint x="1350" y="2385" as="sourcePoint" />
            <mxPoint x="1400" y="2335" as="targetPoint" />
          </mxGeometry>
        </mxCell>
        <mxCell id="8kG_UziqjUuAXPetrYoP-100" value="" style="endArrow=none;html=1;rounded=0;" edge="1" parent="1" source="8kG_UziqjUuAXPetrYoP-95" target="8kG_UziqjUuAXPetrYoP-96">
          <mxGeometry width="50" height="50" relative="1" as="geometry">
            <mxPoint x="1280" y="2445" as="sourcePoint" />
            <mxPoint x="1330" y="2395" as="targetPoint" />
          </mxGeometry>
        </mxCell>
        <mxCell id="8kG_UziqjUuAXPetrYoP-101" value="address" style="ellipse;whiteSpace=wrap;html=1;align=center;" vertex="1" parent="1">
          <mxGeometry x="1180" y="2230" width="80" height="40" as="geometry" />
        </mxCell>
        <mxCell id="8kG_UziqjUuAXPetrYoP-102" value="contactNo" style="ellipse;whiteSpace=wrap;html=1;align=center;" vertex="1" parent="1">
          <mxGeometry x="1260" y="2145" width="100" height="40" as="geometry" />
        </mxCell>
        <mxCell id="8kG_UziqjUuAXPetrYoP-103" value="joinedDate" style="ellipse;whiteSpace=wrap;html=1;align=center;" vertex="1" parent="1">
          <mxGeometry x="1270" y="2215" width="90" height="40" as="geometry" />
        </mxCell>
        <mxCell id="8kG_UziqjUuAXPetrYoP-104" value="" style="endArrow=none;html=1;rounded=0;" edge="1" parent="1" source="8kG_UziqjUuAXPetrYoP-101" target="8kG_UziqjUuAXPetrYoP-91">
          <mxGeometry width="50" height="50" relative="1" as="geometry">
            <mxPoint x="1010" y="2225" as="sourcePoint" />
            <mxPoint x="1060" y="2175" as="targetPoint" />
          </mxGeometry>
        </mxCell>
        <mxCell id="8kG_UziqjUuAXPetrYoP-105" value="" style="endArrow=none;html=1;rounded=0;" edge="1" parent="1" source="8kG_UziqjUuAXPetrYoP-91" target="8kG_UziqjUuAXPetrYoP-103">
          <mxGeometry width="50" height="50" relative="1" as="geometry">
            <mxPoint x="1040" y="2335" as="sourcePoint" />
            <mxPoint x="1090" y="2285" as="targetPoint" />
          </mxGeometry>
        </mxCell>
        <mxCell id="8kG_UziqjUuAXPetrYoP-106" value="" style="endArrow=none;html=1;rounded=0;" edge="1" parent="1" source="8kG_UziqjUuAXPetrYoP-91" target="8kG_UziqjUuAXPetrYoP-102">
          <mxGeometry width="50" height="50" relative="1" as="geometry">
            <mxPoint x="1270" y="2355" as="sourcePoint" />
            <mxPoint x="1320" y="2305" as="targetPoint" />
          </mxGeometry>
        </mxCell>
        <mxCell id="8kG_UziqjUuAXPetrYoP-107" value="" style="endArrow=none;html=1;rounded=0;" edge="1" parent="1" source="8kG_UziqjUuAXPetrYoP-91" target="8kG_UziqjUuAXPetrYoP-92">
          <mxGeometry width="50" height="50" relative="1" as="geometry">
            <mxPoint x="940" y="2285" as="sourcePoint" />
            <mxPoint x="990" y="2235" as="targetPoint" />
          </mxGeometry>
        </mxCell>
        <mxCell id="8kG_UziqjUuAXPetrYoP-108" value="" style="endArrow=none;html=1;rounded=0;" edge="1" parent="1" source="8kG_UziqjUuAXPetrYoP-91" target="8kG_UziqjUuAXPetrYoP-93">
          <mxGeometry width="50" height="50" relative="1" as="geometry">
            <mxPoint x="970" y="2285" as="sourcePoint" />
            <mxPoint x="1020" y="2235" as="targetPoint" />
          </mxGeometry>
        </mxCell>
        <mxCell id="8kG_UziqjUuAXPetrYoP-109" value="" style="endArrow=none;html=1;rounded=0;" edge="1" parent="1" source="8kG_UziqjUuAXPetrYoP-91" target="8kG_UziqjUuAXPetrYoP-94">
          <mxGeometry width="50" height="50" relative="1" as="geometry">
            <mxPoint x="900" y="2325" as="sourcePoint" />
            <mxPoint x="950" y="2275" as="targetPoint" />
          </mxGeometry>
        </mxCell>
        <mxCell id="8kG_UziqjUuAXPetrYoP-110" value="1" style="edgeStyle=orthogonalEdgeStyle;rounded=0;orthogonalLoop=1;jettySize=auto;html=1;entryX=0.5;entryY=1;entryDx=0;entryDy=0;" edge="1" parent="1" source="8kG_UziqjUuAXPetrYoP-111" target="8kG_UziqjUuAXPetrYoP-57">
          <mxGeometry relative="1" as="geometry" />
        </mxCell>
        <mxCell id="8kG_UziqjUuAXPetrYoP-111" value="access to" style="shape=rhombus;perimeter=rhombusPerimeter;whiteSpace=wrap;html=1;align=center;" vertex="1" parent="1">
          <mxGeometry x="770" y="2080" width="120" height="60" as="geometry" />
        </mxCell>
        <mxCell id="8kG_UziqjUuAXPetrYoP-112" value="M" style="edgeStyle=orthogonalEdgeStyle;rounded=0;orthogonalLoop=1;jettySize=auto;html=1;entryX=1;entryY=0.5;entryDx=0;entryDy=0;" edge="1" parent="1" source="8kG_UziqjUuAXPetrYoP-113" target="8kG_UziqjUuAXPetrYoP-121">
          <mxGeometry relative="1" as="geometry" />
        </mxCell>
        <mxCell id="8kG_UziqjUuAXPetrYoP-113" value="sessions" style="rounded=1;arcSize=10;whiteSpace=wrap;html=1;align=center;" vertex="1" parent="1">
          <mxGeometry x="1260" y="1230" width="100" height="40" as="geometry" />
        </mxCell>
        <mxCell id="8kG_UziqjUuAXPetrYoP-114" value="ID" style="ellipse;whiteSpace=wrap;html=1;align=center;fontStyle=4;" vertex="1" parent="1">
          <mxGeometry x="1220" y="1160" width="80" height="40" as="geometry" />
        </mxCell>
        <mxCell id="8kG_UziqjUuAXPetrYoP-115" value="name" style="ellipse;whiteSpace=wrap;html=1;align=center;" vertex="1" parent="1">
          <mxGeometry x="1330" y="1160" width="100" height="40" as="geometry" />
        </mxCell>
        <mxCell id="8kG_UziqjUuAXPetrYoP-116" value="time" style="ellipse;whiteSpace=wrap;html=1;align=center;" vertex="1" parent="1">
          <mxGeometry x="1420" y="1210" width="100" height="40" as="geometry" />
        </mxCell>
        <mxCell id="8kG_UziqjUuAXPetrYoP-117" value="" style="endArrow=none;html=1;rounded=0;entryX=0.5;entryY=1;entryDx=0;entryDy=0;" edge="1" parent="1" source="8kG_UziqjUuAXPetrYoP-113" target="8kG_UziqjUuAXPetrYoP-114">
          <mxGeometry width="50" height="50" relative="1" as="geometry">
            <mxPoint x="1260" y="1460" as="sourcePoint" />
            <mxPoint x="1310" y="1410" as="targetPoint" />
          </mxGeometry>
        </mxCell>
        <mxCell id="8kG_UziqjUuAXPetrYoP-118" value="" style="endArrow=none;html=1;rounded=0;" edge="1" parent="1" source="8kG_UziqjUuAXPetrYoP-113" target="8kG_UziqjUuAXPetrYoP-115">
          <mxGeometry width="50" height="50" relative="1" as="geometry">
            <mxPoint x="1220" y="1410" as="sourcePoint" />
            <mxPoint x="1270" y="1360" as="targetPoint" />
          </mxGeometry>
        </mxCell>
        <mxCell id="8kG_UziqjUuAXPetrYoP-119" value="" style="endArrow=none;html=1;rounded=0;" edge="1" parent="1" source="8kG_UziqjUuAXPetrYoP-113" target="8kG_UziqjUuAXPetrYoP-116">
          <mxGeometry width="50" height="50" relative="1" as="geometry">
            <mxPoint x="1140" y="1420" as="sourcePoint" />
            <mxPoint x="1190" y="1370" as="targetPoint" />
          </mxGeometry>
        </mxCell>
        <mxCell id="8kG_UziqjUuAXPetrYoP-120" value="1" style="edgeStyle=orthogonalEdgeStyle;rounded=0;orthogonalLoop=1;jettySize=auto;html=1;entryX=1;entryY=0.25;entryDx=0;entryDy=0;" edge="1" parent="1" source="8kG_UziqjUuAXPetrYoP-121" target="8kG_UziqjUuAXPetrYoP-30">
          <mxGeometry relative="1" as="geometry">
            <Array as="points">
              <mxPoint x="1250" y="1460" />
              <mxPoint x="985" y="1460" />
              <mxPoint x="985" y="1525" />
            </Array>
          </mxGeometry>
        </mxCell>
        <mxCell id="8kG_UziqjUuAXPetrYoP-121" value="has" style="shape=rhombus;perimeter=rhombusPerimeter;whiteSpace=wrap;html=1;align=center;" vertex="1" parent="1">
          <mxGeometry x="1190" y="1320" width="120" height="60" as="geometry" />
        </mxCell>
        <mxCell id="8kG_UziqjUuAXPetrYoP-122" value="M" style="edgeStyle=orthogonalEdgeStyle;rounded=0;orthogonalLoop=1;jettySize=auto;html=1;entryX=0;entryY=0.5;entryDx=0;entryDy=0;" edge="1" parent="1" source="8kG_UziqjUuAXPetrYoP-127" target="8kG_UziqjUuAXPetrYoP-147">
          <mxGeometry relative="1" as="geometry">
            <Array as="points">
              <mxPoint x="1965" y="1140" />
              <mxPoint x="1965" y="1020" />
            </Array>
          </mxGeometry>
        </mxCell>
        <mxCell id="8kG_UziqjUuAXPetrYoP-123" value="M" style="edgeStyle=orthogonalEdgeStyle;rounded=0;orthogonalLoop=1;jettySize=auto;html=1;entryX=0.5;entryY=0;entryDx=0;entryDy=0;" edge="1" parent="1" target="8kG_UziqjUuAXPetrYoP-151">
          <mxGeometry relative="1" as="geometry">
            <mxPoint x="1910" y="1173.0526315789475" as="sourcePoint" />
            <mxPoint x="2130" y="1233" as="targetPoint" />
          </mxGeometry>
        </mxCell>
        <mxCell id="8kG_UziqjUuAXPetrYoP-124" value="M" style="edgeStyle=orthogonalEdgeStyle;rounded=0;orthogonalLoop=1;jettySize=auto;html=1;entryX=1;entryY=0.5;entryDx=0;entryDy=0;" edge="1" parent="1" source="8kG_UziqjUuAXPetrYoP-127" target="8kG_UziqjUuAXPetrYoP-159">
          <mxGeometry relative="1" as="geometry">
            <Array as="points">
              <mxPoint x="1610" y="1170" />
              <mxPoint x="1610" y="1070" />
            </Array>
          </mxGeometry>
        </mxCell>
        <mxCell id="8kG_UziqjUuAXPetrYoP-125" value="1" style="edgeStyle=orthogonalEdgeStyle;rounded=0;orthogonalLoop=1;jettySize=auto;html=1;entryX=0.5;entryY=1;entryDx=0;entryDy=0;" edge="1" parent="1" source="8kG_UziqjUuAXPetrYoP-127" target="8kG_UziqjUuAXPetrYoP-176">
          <mxGeometry relative="1" as="geometry" />
        </mxCell>
        <mxCell id="8kG_UziqjUuAXPetrYoP-126" value="1" style="edgeStyle=orthogonalEdgeStyle;rounded=0;orthogonalLoop=1;jettySize=auto;html=1;entryX=0.5;entryY=1;entryDx=0;entryDy=0;" edge="1" parent="1" source="8kG_UziqjUuAXPetrYoP-127" target="8kG_UziqjUuAXPetrYoP-327">
          <mxGeometry relative="1" as="geometry">
            <Array as="points">
              <mxPoint x="1840" y="1080" />
              <mxPoint x="1785" y="1080" />
            </Array>
          </mxGeometry>
        </mxCell>
        <mxCell id="8kG_UziqjUuAXPetrYoP-127" value="trains" style="rounded=1;arcSize=10;whiteSpace=wrap;html=1;align=center;" vertex="1" parent="1">
          <mxGeometry x="1810" y="1140" width="100" height="40" as="geometry" />
        </mxCell>
        <mxCell id="8kG_UziqjUuAXPetrYoP-128" value="bookedTickets" style="rounded=1;arcSize=10;whiteSpace=wrap;html=1;align=center;" vertex="1" parent="1">
          <mxGeometry x="2210" y="1000" width="80" height="40" as="geometry" />
        </mxCell>
        <mxCell id="8kG_UziqjUuAXPetrYoP-129" value="savedTrains" style="rounded=1;arcSize=10;whiteSpace=wrap;html=1;align=center;" vertex="1" parent="1">
          <mxGeometry x="2290" y="1340" width="100" height="40" as="geometry" />
        </mxCell>
        <mxCell id="8kG_UziqjUuAXPetrYoP-130" value="frequentlyUsedTrains" style="rounded=1;arcSize=10;whiteSpace=wrap;html=1;align=center;" vertex="1" parent="1">
          <mxGeometry x="1015" y="1050" width="150" height="40" as="geometry" />
        </mxCell>
        <mxCell id="8kG_UziqjUuAXPetrYoP-131" value="M" style="edgeStyle=orthogonalEdgeStyle;rounded=0;orthogonalLoop=1;jettySize=auto;html=1;entryX=0;entryY=0.5;entryDx=0;entryDy=0;" edge="1" parent="1" source="8kG_UziqjUuAXPetrYoP-134" target="8kG_UziqjUuAXPetrYoP-142">
          <mxGeometry relative="1" as="geometry">
            <Array as="points">
              <mxPoint x="1090" y="740" />
              <mxPoint x="1090" y="1010" />
            </Array>
          </mxGeometry>
        </mxCell>
        <mxCell id="8kG_UziqjUuAXPetrYoP-132" value="1" style="edgeStyle=orthogonalEdgeStyle;rounded=0;orthogonalLoop=1;jettySize=auto;html=1;entryX=0.5;entryY=0;entryDx=0;entryDy=0;" edge="1" parent="1" source="8kG_UziqjUuAXPetrYoP-134" target="8kG_UziqjUuAXPetrYoP-192">
          <mxGeometry relative="1" as="geometry">
            <Array as="points">
              <mxPoint x="1020" y="690" />
              <mxPoint x="1120" y="690" />
              <mxPoint x="1120" y="500" />
              <mxPoint x="2825" y="500" />
            </Array>
          </mxGeometry>
        </mxCell>
        <mxCell id="8kG_UziqjUuAXPetrYoP-133" value="1" style="edgeStyle=orthogonalEdgeStyle;rounded=0;orthogonalLoop=1;jettySize=auto;html=1;entryX=0.5;entryY=1;entryDx=0;entryDy=0;" edge="1" parent="1" source="8kG_UziqjUuAXPetrYoP-134" target="8kG_UziqjUuAXPetrYoP-255">
          <mxGeometry relative="1" as="geometry">
            <Array as="points">
              <mxPoint x="1040" y="740" />
              <mxPoint x="1040" y="530" />
              <mxPoint x="1010" y="530" />
            </Array>
          </mxGeometry>
        </mxCell>
        <mxCell id="8kG_UziqjUuAXPetrYoP-134" value="stations" style="rounded=1;arcSize=10;whiteSpace=wrap;html=1;align=center;" vertex="1" parent="1">
          <mxGeometry x="970" y="720" width="100" height="40" as="geometry" />
        </mxCell>
        <mxCell id="8kG_UziqjUuAXPetrYoP-135" value="1" style="edgeStyle=orthogonalEdgeStyle;rounded=0;orthogonalLoop=1;jettySize=auto;html=1;" edge="1" parent="1" source="8kG_UziqjUuAXPetrYoP-136" target="8kG_UziqjUuAXPetrYoP-145">
          <mxGeometry relative="1" as="geometry" />
        </mxCell>
        <mxCell id="8kG_UziqjUuAXPetrYoP-136" value="classes" style="rounded=1;arcSize=10;whiteSpace=wrap;html=1;align=center;" vertex="1" parent="1">
          <mxGeometry x="1830" y="350" width="50" height="40" as="geometry" />
        </mxCell>
        <mxCell id="8kG_UziqjUuAXPetrYoP-137" value="1" style="edgeStyle=orthogonalEdgeStyle;rounded=0;orthogonalLoop=1;jettySize=auto;html=1;" edge="1" parent="1" source="8kG_UziqjUuAXPetrYoP-138" target="8kG_UziqjUuAXPetrYoP-149">
          <mxGeometry relative="1" as="geometry" />
        </mxCell>
        <mxCell id="8kG_UziqjUuAXPetrYoP-138" value="paymentHistory" style="rounded=1;arcSize=10;whiteSpace=wrap;html=1;align=center;" vertex="1" parent="1">
          <mxGeometry x="2260" y="530" width="100" height="40" as="geometry" />
        </mxCell>
        <mxCell id="8kG_UziqjUuAXPetrYoP-139" value="M" style="edgeStyle=orthogonalEdgeStyle;rounded=0;orthogonalLoop=1;jettySize=auto;html=1;entryX=1;entryY=0.5;entryDx=0;entryDy=0;" edge="1" parent="1" source="8kG_UziqjUuAXPetrYoP-140" target="8kG_UziqjUuAXPetrYoP-127">
          <mxGeometry relative="1" as="geometry" />
        </mxCell>
        <mxCell id="8kG_UziqjUuAXPetrYoP-140" value="created by" style="shape=rhombus;perimeter=rhombusPerimeter;whiteSpace=wrap;html=1;align=center;" vertex="1" parent="1">
          <mxGeometry x="2050" y="1300" width="120" height="60" as="geometry" />
        </mxCell>
        <mxCell id="8kG_UziqjUuAXPetrYoP-141" value="N" style="edgeStyle=orthogonalEdgeStyle;rounded=0;orthogonalLoop=1;jettySize=auto;html=1;entryX=0;entryY=0.5;entryDx=0;entryDy=0;" edge="1" parent="1" source="8kG_UziqjUuAXPetrYoP-142" target="8kG_UziqjUuAXPetrYoP-127">
          <mxGeometry relative="1" as="geometry" />
        </mxCell>
        <mxCell id="8kG_UziqjUuAXPetrYoP-142" value="contains" style="shape=rhombus;perimeter=rhombusPerimeter;whiteSpace=wrap;html=1;align=center;" vertex="1" parent="1">
          <mxGeometry x="1530" y="980" width="120" height="60" as="geometry" />
        </mxCell>
        <mxCell id="8kG_UziqjUuAXPetrYoP-143" value="M" style="edgeStyle=orthogonalEdgeStyle;rounded=0;orthogonalLoop=1;jettySize=auto;html=1;entryX=-0.039;entryY=0.629;entryDx=0;entryDy=0;entryPerimeter=0;" edge="1" parent="1" source="8kG_UziqjUuAXPetrYoP-145" target="8kG_UziqjUuAXPetrYoP-282">
          <mxGeometry relative="1" as="geometry">
            <mxPoint x="2120" y="265" as="targetPoint" />
          </mxGeometry>
        </mxCell>
        <mxCell id="8kG_UziqjUuAXPetrYoP-144" value="M" style="edgeStyle=orthogonalEdgeStyle;rounded=0;orthogonalLoop=1;jettySize=auto;html=1;entryX=1;entryY=0.25;entryDx=0;entryDy=0;" edge="1" parent="1" source="8kG_UziqjUuAXPetrYoP-145" target="8kG_UziqjUuAXPetrYoP-128">
          <mxGeometry relative="1" as="geometry">
            <mxPoint x="2540" y="431.66666666666674" as="targetPoint" />
            <Array as="points">
              <mxPoint x="1855" y="70" />
              <mxPoint x="2540" y="70" />
              <mxPoint x="2540" y="1010" />
            </Array>
          </mxGeometry>
        </mxCell>
        <mxCell id="8kG_UziqjUuAXPetrYoP-145" value="contains" style="shape=rhombus;perimeter=rhombusPerimeter;whiteSpace=wrap;html=1;align=center;" vertex="1" parent="1">
          <mxGeometry x="1795" y="230" width="120" height="70" as="geometry" />
        </mxCell>
        <mxCell id="8kG_UziqjUuAXPetrYoP-146" value="N" style="edgeStyle=orthogonalEdgeStyle;rounded=0;orthogonalLoop=1;jettySize=auto;html=1;" edge="1" parent="1" source="8kG_UziqjUuAXPetrYoP-147" target="8kG_UziqjUuAXPetrYoP-128">
          <mxGeometry relative="1" as="geometry" />
        </mxCell>
        <mxCell id="8kG_UziqjUuAXPetrYoP-147" value="contains" style="shape=rhombus;perimeter=rhombusPerimeter;whiteSpace=wrap;html=1;align=center;" vertex="1" parent="1">
          <mxGeometry x="2020" y="985" width="120" height="70" as="geometry" />
        </mxCell>
        <mxCell id="8kG_UziqjUuAXPetrYoP-148" value="1" style="edgeStyle=orthogonalEdgeStyle;rounded=0;orthogonalLoop=1;jettySize=auto;html=1;entryX=0;entryY=0;entryDx=0;entryDy=0;exitX=0.5;exitY=1;exitDx=0;exitDy=0;" edge="1" parent="1" source="8kG_UziqjUuAXPetrYoP-149" target="8kG_UziqjUuAXPetrYoP-128">
          <mxGeometry relative="1" as="geometry">
            <mxPoint x="2190" y="1000" as="targetPoint" />
            <Array as="points">
              <mxPoint x="2260" y="700" />
              <mxPoint x="2260" y="795" />
              <mxPoint x="2160" y="795" />
              <mxPoint x="2160" y="1000" />
            </Array>
          </mxGeometry>
        </mxCell>
        <mxCell id="8kG_UziqjUuAXPetrYoP-149" value="contains" style="shape=rhombus;perimeter=rhombusPerimeter;whiteSpace=wrap;html=1;align=center;" vertex="1" parent="1">
          <mxGeometry x="2250" y="630" width="120" height="70" as="geometry" />
        </mxCell>
        <mxCell id="8kG_UziqjUuAXPetrYoP-150" value="N" style="edgeStyle=orthogonalEdgeStyle;rounded=0;orthogonalLoop=1;jettySize=auto;html=1;entryX=0.5;entryY=0;entryDx=0;entryDy=0;" edge="1" parent="1" source="8kG_UziqjUuAXPetrYoP-151" target="8kG_UziqjUuAXPetrYoP-129">
          <mxGeometry relative="1" as="geometry" />
        </mxCell>
        <mxCell id="8kG_UziqjUuAXPetrYoP-151" value="Saved as" style="shape=rhombus;perimeter=rhombusPerimeter;whiteSpace=wrap;html=1;align=center;" vertex="1" parent="1">
          <mxGeometry x="2130" y="1190" width="120" height="60" as="geometry" />
        </mxCell>
        <mxCell id="8kG_UziqjUuAXPetrYoP-152" value="M" style="edgeStyle=orthogonalEdgeStyle;rounded=0;orthogonalLoop=1;jettySize=auto;html=1;entryX=0.5;entryY=1;entryDx=0;entryDy=0;" edge="1" parent="1" source="8kG_UziqjUuAXPetrYoP-153" target="8kG_UziqjUuAXPetrYoP-129">
          <mxGeometry relative="1" as="geometry">
            <Array as="points">
              <mxPoint x="420" y="2300" />
              <mxPoint x="2340" y="2300" />
            </Array>
          </mxGeometry>
        </mxCell>
        <mxCell id="8kG_UziqjUuAXPetrYoP-153" value="saved by" style="shape=rhombus;perimeter=rhombusPerimeter;whiteSpace=wrap;html=1;align=center;" vertex="1" parent="1">
          <mxGeometry x="360" y="1780" width="120" height="60" as="geometry" />
        </mxCell>
        <mxCell id="8kG_UziqjUuAXPetrYoP-154" value="M" style="edgeStyle=orthogonalEdgeStyle;rounded=0;orthogonalLoop=1;jettySize=auto;html=1;exitX=1;exitY=0.5;exitDx=0;exitDy=0;" edge="1" parent="1" source="8kG_UziqjUuAXPetrYoP-155" target="8kG_UziqjUuAXPetrYoP-128">
          <mxGeometry relative="1" as="geometry">
            <mxPoint x="590" y="1730" as="sourcePoint" />
            <Array as="points">
              <mxPoint x="600" y="1720" />
              <mxPoint x="600" y="1730" />
              <mxPoint x="2260" y="1730" />
            </Array>
          </mxGeometry>
        </mxCell>
        <mxCell id="8kG_UziqjUuAXPetrYoP-155" value="Booked by" style="shape=rhombus;perimeter=rhombusPerimeter;whiteSpace=wrap;html=1;align=center;" vertex="1" parent="1">
          <mxGeometry x="460" y="1690" width="120" height="60" as="geometry" />
        </mxCell>
        <mxCell id="8kG_UziqjUuAXPetrYoP-156" value="M" style="edgeStyle=orthogonalEdgeStyle;rounded=0;orthogonalLoop=1;jettySize=auto;html=1;entryX=0.036;entryY=1.1;entryDx=0;entryDy=0;entryPerimeter=0;" edge="1" parent="1" source="8kG_UziqjUuAXPetrYoP-157" target="8kG_UziqjUuAXPetrYoP-130">
          <mxGeometry relative="1" as="geometry">
            <mxPoint x="1053" y="1140" as="targetPoint" />
            <Array as="points">
              <mxPoint x="1020" y="1370" />
            </Array>
          </mxGeometry>
        </mxCell>
        <mxCell id="8kG_UziqjUuAXPetrYoP-157" value="used by" style="shape=rhombus;perimeter=rhombusPerimeter;whiteSpace=wrap;html=1;align=center;" vertex="1" parent="1">
          <mxGeometry x="835" y="1340" width="120" height="60" as="geometry" />
        </mxCell>
        <mxCell id="8kG_UziqjUuAXPetrYoP-158" value="N" style="edgeStyle=orthogonalEdgeStyle;rounded=0;orthogonalLoop=1;jettySize=auto;html=1;entryX=1;entryY=0.5;entryDx=0;entryDy=0;" edge="1" parent="1" source="8kG_UziqjUuAXPetrYoP-159" target="8kG_UziqjUuAXPetrYoP-130">
          <mxGeometry relative="1" as="geometry" />
        </mxCell>
        <mxCell id="8kG_UziqjUuAXPetrYoP-159" value="included in" style="shape=rhombus;perimeter=rhombusPerimeter;whiteSpace=wrap;html=1;align=center;" vertex="1" parent="1">
          <mxGeometry x="1290" y="1040" width="120" height="60" as="geometry" />
        </mxCell>
        <mxCell id="8kG_UziqjUuAXPetrYoP-160" value="trainID" style="ellipse;whiteSpace=wrap;html=1;align=center;fontStyle=4;" vertex="1" parent="1">
          <mxGeometry x="1665" y="1190" width="65" height="40" as="geometry" />
        </mxCell>
        <mxCell id="8kG_UziqjUuAXPetrYoP-161" value="" style="endArrow=none;html=1;rounded=0;entryX=0;entryY=1;entryDx=0;entryDy=0;" edge="1" parent="1" source="8kG_UziqjUuAXPetrYoP-160" target="8kG_UziqjUuAXPetrYoP-127">
          <mxGeometry width="50" height="50" relative="1" as="geometry">
            <mxPoint x="1720" y="1380" as="sourcePoint" />
            <mxPoint x="1770" y="1330" as="targetPoint" />
          </mxGeometry>
        </mxCell>
        <mxCell id="8kG_UziqjUuAXPetrYoP-162" value="1" style="edgeStyle=orthogonalEdgeStyle;rounded=0;orthogonalLoop=1;jettySize=auto;html=1;entryX=0.5;entryY=1;entryDx=0;entryDy=0;" edge="1" parent="1" source="8kG_UziqjUuAXPetrYoP-164" target="8kG_UziqjUuAXPetrYoP-290">
          <mxGeometry relative="1" as="geometry">
            <Array as="points">
              <mxPoint x="1900" y="540" />
              <mxPoint x="2160" y="540" />
            </Array>
          </mxGeometry>
        </mxCell>
        <mxCell id="8kG_UziqjUuAXPetrYoP-163" value="1" style="edgeStyle=orthogonalEdgeStyle;rounded=0;orthogonalLoop=1;jettySize=auto;html=1;entryX=0.5;entryY=0;entryDx=0;entryDy=0;" edge="1" parent="1" source="8kG_UziqjUuAXPetrYoP-164" target="8kG_UziqjUuAXPetrYoP-304">
          <mxGeometry relative="1" as="geometry">
            <Array as="points">
              <mxPoint x="2030" y="730" />
            </Array>
          </mxGeometry>
        </mxCell>
        <mxCell id="8kG_UziqjUuAXPetrYoP-164" value="trainTime" style="rounded=1;arcSize=10;whiteSpace=wrap;html=1;align=center;" vertex="1" parent="1">
          <mxGeometry x="1850" y="710" width="100" height="40" as="geometry" />
        </mxCell>
        <mxCell id="8kG_UziqjUuAXPetrYoP-165" value="date" style="ellipse;whiteSpace=wrap;html=1;align=center;" vertex="1" parent="1">
          <mxGeometry x="1720" y="630" width="70" height="40" as="geometry" />
        </mxCell>
        <mxCell id="8kG_UziqjUuAXPetrYoP-166" value="departTime" style="ellipse;whiteSpace=wrap;html=1;align=center;" vertex="1" parent="1">
          <mxGeometry x="1740" y="580" width="80" height="40" as="geometry" />
        </mxCell>
        <mxCell id="8kG_UziqjUuAXPetrYoP-167" value="arrivalTime" style="ellipse;whiteSpace=wrap;html=1;align=center;" vertex="1" parent="1">
          <mxGeometry x="1930" y="610" width="70" height="40" as="geometry" />
        </mxCell>
        <mxCell id="8kG_UziqjUuAXPetrYoP-168" value="ID" style="ellipse;whiteSpace=wrap;html=1;align=center;fontStyle=4;" vertex="1" parent="1">
          <mxGeometry x="1820" y="540" width="60" height="40" as="geometry" />
        </mxCell>
        <mxCell id="8kG_UziqjUuAXPetrYoP-169" value="status (cancelled, active, completed, stoped)" style="ellipse;whiteSpace=wrap;html=1;align=center;" vertex="1" parent="1">
          <mxGeometry x="1980" y="650" width="150" height="70" as="geometry" />
        </mxCell>
        <mxCell id="8kG_UziqjUuAXPetrYoP-170" value="" style="endArrow=none;html=1;rounded=0;entryX=0.5;entryY=1;entryDx=0;entryDy=0;" edge="1" parent="1" source="8kG_UziqjUuAXPetrYoP-164" target="8kG_UziqjUuAXPetrYoP-168">
          <mxGeometry width="50" height="50" relative="1" as="geometry">
            <mxPoint x="1930" y="880" as="sourcePoint" />
            <mxPoint x="1980" y="830" as="targetPoint" />
          </mxGeometry>
        </mxCell>
        <mxCell id="8kG_UziqjUuAXPetrYoP-171" value="" style="endArrow=none;html=1;rounded=0;exitX=0;exitY=0.25;exitDx=0;exitDy=0;" edge="1" parent="1" source="8kG_UziqjUuAXPetrYoP-164" target="8kG_UziqjUuAXPetrYoP-165">
          <mxGeometry width="50" height="50" relative="1" as="geometry">
            <mxPoint x="1890" y="900" as="sourcePoint" />
            <mxPoint x="1940" y="850" as="targetPoint" />
          </mxGeometry>
        </mxCell>
        <mxCell id="8kG_UziqjUuAXPetrYoP-172" value="" style="endArrow=none;html=1;rounded=0;" edge="1" parent="1" source="8kG_UziqjUuAXPetrYoP-164" target="8kG_UziqjUuAXPetrYoP-166">
          <mxGeometry width="50" height="50" relative="1" as="geometry">
            <mxPoint x="1890" y="960" as="sourcePoint" />
            <mxPoint x="1940" y="910" as="targetPoint" />
          </mxGeometry>
        </mxCell>
        <mxCell id="8kG_UziqjUuAXPetrYoP-173" value="" style="endArrow=none;html=1;rounded=0;" edge="1" parent="1" source="8kG_UziqjUuAXPetrYoP-164" target="8kG_UziqjUuAXPetrYoP-169">
          <mxGeometry width="50" height="50" relative="1" as="geometry">
            <mxPoint x="2000" y="1000" as="sourcePoint" />
            <mxPoint x="2050" y="950" as="targetPoint" />
          </mxGeometry>
        </mxCell>
        <mxCell id="8kG_UziqjUuAXPetrYoP-174" value="" style="endArrow=none;html=1;rounded=0;" edge="1" parent="1" source="8kG_UziqjUuAXPetrYoP-164" target="8kG_UziqjUuAXPetrYoP-167">
          <mxGeometry width="50" height="50" relative="1" as="geometry">
            <mxPoint x="1810" y="1010" as="sourcePoint" />
            <mxPoint x="1860" y="960" as="targetPoint" />
          </mxGeometry>
        </mxCell>
        <mxCell id="8kG_UziqjUuAXPetrYoP-175" value="M" style="edgeStyle=orthogonalEdgeStyle;rounded=0;orthogonalLoop=1;jettySize=auto;html=1;" edge="1" parent="1" source="8kG_UziqjUuAXPetrYoP-176" target="8kG_UziqjUuAXPetrYoP-164">
          <mxGeometry relative="1" as="geometry" />
        </mxCell>
        <mxCell id="8kG_UziqjUuAXPetrYoP-176" value="work at" style="shape=rhombus;perimeter=rhombusPerimeter;whiteSpace=wrap;html=1;align=center;" vertex="1" parent="1">
          <mxGeometry x="1840" y="800" width="120" height="70" as="geometry" />
        </mxCell>
        <mxCell id="8kG_UziqjUuAXPetrYoP-177" value="name" style="ellipse;whiteSpace=wrap;html=1;align=center;" vertex="1" parent="1">
          <mxGeometry x="1690" y="1240" width="55" height="40" as="geometry" />
        </mxCell>
        <mxCell id="8kG_UziqjUuAXPetrYoP-178" value="" style="endArrow=none;html=1;rounded=0;entryX=0;entryY=1;entryDx=0;entryDy=0;" edge="1" parent="1" source="8kG_UziqjUuAXPetrYoP-177" target="8kG_UziqjUuAXPetrYoP-127">
          <mxGeometry width="50" height="50" relative="1" as="geometry">
            <mxPoint x="1830" y="1360" as="sourcePoint" />
            <mxPoint x="1880" y="1310" as="targetPoint" />
          </mxGeometry>
        </mxCell>
        <mxCell id="8kG_UziqjUuAXPetrYoP-179" value="driver" style="ellipse;whiteSpace=wrap;html=1;align=center;" vertex="1" parent="1">
          <mxGeometry x="1755" y="1230" width="55" height="40" as="geometry" />
        </mxCell>
        <mxCell id="8kG_UziqjUuAXPetrYoP-180" value="" style="endArrow=none;html=1;rounded=0;entryX=0;entryY=1;entryDx=0;entryDy=0;" edge="1" parent="1" source="8kG_UziqjUuAXPetrYoP-179" target="8kG_UziqjUuAXPetrYoP-127">
          <mxGeometry width="50" height="50" relative="1" as="geometry">
            <mxPoint x="1780" y="1350" as="sourcePoint" />
            <mxPoint x="1830" y="1300" as="targetPoint" />
          </mxGeometry>
        </mxCell>
        <mxCell id="8kG_UziqjUuAXPetrYoP-181" value="M" style="edgeStyle=orthogonalEdgeStyle;rounded=0;orthogonalLoop=1;jettySize=auto;html=1;" edge="1" parent="1" source="8kG_UziqjUuAXPetrYoP-182" target="8kG_UziqjUuAXPetrYoP-194">
          <mxGeometry relative="1" as="geometry" />
        </mxCell>
        <mxCell id="8kG_UziqjUuAXPetrYoP-182" value="trainInfo" style="rounded=1;arcSize=10;whiteSpace=wrap;html=1;align=center;" vertex="1" parent="1">
          <mxGeometry x="2580" y="1690" width="100" height="40" as="geometry" />
        </mxCell>
        <mxCell id="8kG_UziqjUuAXPetrYoP-183" value="M" style="edgeStyle=orthogonalEdgeStyle;rounded=0;orthogonalLoop=1;jettySize=auto;html=1;" edge="1" parent="1" source="8kG_UziqjUuAXPetrYoP-186" target="8kG_UziqjUuAXPetrYoP-214">
          <mxGeometry relative="1" as="geometry" />
        </mxCell>
        <mxCell id="8kG_UziqjUuAXPetrYoP-184" value="1" style="edgeStyle=orthogonalEdgeStyle;rounded=0;orthogonalLoop=1;jettySize=auto;html=1;entryX=0.5;entryY=1;entryDx=0;entryDy=0;" edge="1" parent="1" source="8kG_UziqjUuAXPetrYoP-186" target="8kG_UziqjUuAXPetrYoP-219">
          <mxGeometry relative="1" as="geometry" />
        </mxCell>
        <mxCell id="8kG_UziqjUuAXPetrYoP-185" value="1" style="edgeStyle=orthogonalEdgeStyle;rounded=0;orthogonalLoop=1;jettySize=auto;html=1;entryX=1;entryY=0.5;entryDx=0;entryDy=0;" edge="1" parent="1" source="8kG_UziqjUuAXPetrYoP-186" target="8kG_UziqjUuAXPetrYoP-261">
          <mxGeometry relative="1" as="geometry">
            <Array as="points">
              <mxPoint x="1380" y="690" />
              <mxPoint x="1380" y="730" />
              <mxPoint x="1330" y="730" />
              <mxPoint x="1330" y="778" />
            </Array>
          </mxGeometry>
        </mxCell>
        <mxCell id="8kG_UziqjUuAXPetrYoP-186" value="route (includes smaller routes)" style="rounded=1;arcSize=10;whiteSpace=wrap;html=1;align=center;" vertex="1" parent="1">
          <mxGeometry x="1400" y="670" width="100" height="40" as="geometry" />
        </mxCell>
        <mxCell id="8kG_UziqjUuAXPetrYoP-187" value="1" style="edgeStyle=orthogonalEdgeStyle;rounded=0;orthogonalLoop=1;jettySize=auto;html=1;" edge="1" parent="1" source="8kG_UziqjUuAXPetrYoP-188" target="8kG_UziqjUuAXPetrYoP-190">
          <mxGeometry relative="1" as="geometry" />
        </mxCell>
        <mxCell id="8kG_UziqjUuAXPetrYoP-188" value="platformInfo" style="rounded=1;arcSize=10;whiteSpace=wrap;html=1;align=center;" vertex="1" parent="1">
          <mxGeometry x="2575" y="1490" width="100" height="40" as="geometry" />
        </mxCell>
        <mxCell id="8kG_UziqjUuAXPetrYoP-189" value="M" style="edgeStyle=orthogonalEdgeStyle;rounded=0;orthogonalLoop=1;jettySize=auto;html=1;entryX=1.014;entryY=0.928;entryDx=0;entryDy=0;entryPerimeter=0;" edge="1" parent="1" target="8kG_UziqjUuAXPetrYoP-164">
          <mxGeometry relative="1" as="geometry">
            <mxPoint x="2460.066666666667" y="1481.9666666666667" as="sourcePoint" />
            <mxPoint x="1960" y="747" as="targetPoint" />
            <Array as="points">
              <mxPoint x="2460" y="747" />
            </Array>
          </mxGeometry>
        </mxCell>
        <mxCell id="8kG_UziqjUuAXPetrYoP-190" value="arrives in" style="shape=rhombus;perimeter=rhombusPerimeter;whiteSpace=wrap;html=1;align=center;" vertex="1" parent="1">
          <mxGeometry x="2400" y="1480" width="120" height="60" as="geometry" />
        </mxCell>
        <mxCell id="8kG_UziqjUuAXPetrYoP-191" value="M" style="edgeStyle=orthogonalEdgeStyle;rounded=0;orthogonalLoop=1;jettySize=auto;html=1;" edge="1" parent="1" source="8kG_UziqjUuAXPetrYoP-192" target="8kG_UziqjUuAXPetrYoP-188">
          <mxGeometry relative="1" as="geometry" />
        </mxCell>
        <mxCell id="8kG_UziqjUuAXPetrYoP-192" value="belongs to station" style="shape=rhombus;perimeter=rhombusPerimeter;whiteSpace=wrap;html=1;align=center;" vertex="1" parent="1">
          <mxGeometry x="2760" y="1480" width="130" height="70" as="geometry" />
        </mxCell>
        <mxCell id="8kG_UziqjUuAXPetrYoP-193" value="N" style="edgeStyle=orthogonalEdgeStyle;rounded=0;orthogonalLoop=1;jettySize=auto;html=1;entryX=0.5;entryY=1;entryDx=0;entryDy=0;" edge="1" parent="1" source="8kG_UziqjUuAXPetrYoP-194" target="8kG_UziqjUuAXPetrYoP-127">
          <mxGeometry relative="1" as="geometry">
            <Array as="points">
              <mxPoint x="2425" y="1650" />
              <mxPoint x="1860" y="1650" />
            </Array>
          </mxGeometry>
        </mxCell>
        <mxCell id="8kG_UziqjUuAXPetrYoP-194" value="Contains" style="shape=rhombus;perimeter=rhombusPerimeter;whiteSpace=wrap;html=1;align=center;" vertex="1" parent="1">
          <mxGeometry x="2360" y="1675" width="130" height="70" as="geometry" />
        </mxCell>
        <mxCell id="8kG_UziqjUuAXPetrYoP-195" value="routeID" style="ellipse;whiteSpace=wrap;html=1;align=center;fontStyle=4;" vertex="1" parent="1">
          <mxGeometry x="1215" y="580" width="70" height="40" as="geometry" />
        </mxCell>
        <mxCell id="8kG_UziqjUuAXPetrYoP-196" value="routeName" style="ellipse;whiteSpace=wrap;html=1;align=center;" vertex="1" parent="1">
          <mxGeometry x="1310" y="580" width="100" height="40" as="geometry" />
        </mxCell>
        <mxCell id="8kG_UziqjUuAXPetrYoP-197" value="" style="endArrow=none;html=1;rounded=0;" edge="1" parent="1" source="8kG_UziqjUuAXPetrYoP-186" target="8kG_UziqjUuAXPetrYoP-195">
          <mxGeometry width="50" height="50" relative="1" as="geometry">
            <mxPoint x="1430" y="1000" as="sourcePoint" />
            <mxPoint x="1480" y="950" as="targetPoint" />
          </mxGeometry>
        </mxCell>
        <mxCell id="8kG_UziqjUuAXPetrYoP-198" value="" style="endArrow=none;html=1;rounded=0;exitX=0;exitY=0;exitDx=0;exitDy=0;" edge="1" parent="1" source="8kG_UziqjUuAXPetrYoP-186" target="8kG_UziqjUuAXPetrYoP-196">
          <mxGeometry width="50" height="50" relative="1" as="geometry">
            <mxPoint x="1190" y="970" as="sourcePoint" />
            <mxPoint x="1240" y="920" as="targetPoint" />
          </mxGeometry>
        </mxCell>
        <mxCell id="8kG_UziqjUuAXPetrYoP-199" value="trainID" style="ellipse;whiteSpace=wrap;html=1;align=center;fontStyle=4;" vertex="1" parent="1">
          <mxGeometry x="2520" y="1610" width="70" height="40" as="geometry" />
        </mxCell>
        <mxCell id="8kG_UziqjUuAXPetrYoP-200" value="name" style="ellipse;whiteSpace=wrap;html=1;align=center;" vertex="1" parent="1">
          <mxGeometry x="2600" y="1610" width="70" height="40" as="geometry" />
        </mxCell>
        <mxCell id="8kG_UziqjUuAXPetrYoP-201" value="reportingNo" style="ellipse;whiteSpace=wrap;html=1;align=center;" vertex="1" parent="1">
          <mxGeometry x="2690" y="1610" width="100" height="40" as="geometry" />
        </mxCell>
        <mxCell id="8kG_UziqjUuAXPetrYoP-202" value="M" style="edgeStyle=orthogonalEdgeStyle;rounded=0;orthogonalLoop=1;jettySize=auto;html=1;entryX=1;entryY=0.5;entryDx=0;entryDy=0;" edge="1" parent="1" source="8kG_UziqjUuAXPetrYoP-203" target="8kG_UziqjUuAXPetrYoP-216">
          <mxGeometry relative="1" as="geometry" />
        </mxCell>
        <mxCell id="8kG_UziqjUuAXPetrYoP-203" value="trainClass" style="rounded=1;arcSize=10;whiteSpace=wrap;html=1;align=center;" vertex="1" parent="1">
          <mxGeometry x="3020" y="1865" width="100" height="40" as="geometry" />
        </mxCell>
        <mxCell id="8kG_UziqjUuAXPetrYoP-204" value="" style="endArrow=none;html=1;rounded=0;" edge="1" parent="1" source="8kG_UziqjUuAXPetrYoP-182" target="8kG_UziqjUuAXPetrYoP-201">
          <mxGeometry width="50" height="50" relative="1" as="geometry">
            <mxPoint x="2750" y="1860" as="sourcePoint" />
            <mxPoint x="2800" y="1810" as="targetPoint" />
          </mxGeometry>
        </mxCell>
        <mxCell id="8kG_UziqjUuAXPetrYoP-205" value="" style="endArrow=none;html=1;rounded=0;" edge="1" parent="1" source="8kG_UziqjUuAXPetrYoP-182" target="8kG_UziqjUuAXPetrYoP-199">
          <mxGeometry width="50" height="50" relative="1" as="geometry">
            <mxPoint x="2560" y="1880" as="sourcePoint" />
            <mxPoint x="2610" y="1830" as="targetPoint" />
          </mxGeometry>
        </mxCell>
        <mxCell id="8kG_UziqjUuAXPetrYoP-206" value="" style="endArrow=none;html=1;rounded=0;" edge="1" parent="1" source="8kG_UziqjUuAXPetrYoP-182" target="8kG_UziqjUuAXPetrYoP-200">
          <mxGeometry width="50" height="50" relative="1" as="geometry">
            <mxPoint x="2690" y="1840" as="sourcePoint" />
            <mxPoint x="2740" y="1790" as="targetPoint" />
          </mxGeometry>
        </mxCell>
        <mxCell id="8kG_UziqjUuAXPetrYoP-207" value="classID" style="ellipse;whiteSpace=wrap;html=1;align=center;fontStyle=4;" vertex="1" parent="1">
          <mxGeometry x="2940" y="1815" width="70" height="40" as="geometry" />
        </mxCell>
        <mxCell id="8kG_UziqjUuAXPetrYoP-208" value="className" style="ellipse;whiteSpace=wrap;html=1;align=center;" vertex="1" parent="1">
          <mxGeometry x="3100" y="1800" width="100" height="40" as="geometry" />
        </mxCell>
        <mxCell id="8kG_UziqjUuAXPetrYoP-209" value="" style="endArrow=none;html=1;rounded=0;exitX=0.033;exitY=-0.017;exitDx=0;exitDy=0;exitPerimeter=0;" edge="1" parent="1" source="8kG_UziqjUuAXPetrYoP-203" target="8kG_UziqjUuAXPetrYoP-207">
          <mxGeometry width="50" height="50" relative="1" as="geometry">
            <mxPoint x="3020" y="1847" as="sourcePoint" />
            <mxPoint x="3100" y="2123" as="targetPoint" />
          </mxGeometry>
        </mxCell>
        <mxCell id="8kG_UziqjUuAXPetrYoP-210" value="" style="endArrow=none;html=1;rounded=0;" edge="1" parent="1" source="8kG_UziqjUuAXPetrYoP-203" target="8kG_UziqjUuAXPetrYoP-208">
          <mxGeometry width="50" height="50" relative="1" as="geometry">
            <mxPoint x="3020" y="1843" as="sourcePoint" />
            <mxPoint x="2860" y="2093" as="targetPoint" />
          </mxGeometry>
        </mxCell>
        <mxCell id="8kG_UziqjUuAXPetrYoP-211" value="description" style="ellipse;whiteSpace=wrap;html=1;align=center;" vertex="1" parent="1">
          <mxGeometry x="3140" y="1910" width="100" height="40" as="geometry" />
        </mxCell>
        <mxCell id="8kG_UziqjUuAXPetrYoP-212" value="" style="endArrow=none;html=1;rounded=0;" edge="1" parent="1" source="8kG_UziqjUuAXPetrYoP-203" target="8kG_UziqjUuAXPetrYoP-211">
          <mxGeometry width="50" height="50" relative="1" as="geometry">
            <mxPoint x="3140" y="1917" as="sourcePoint" />
            <mxPoint x="3152" y="1860" as="targetPoint" />
          </mxGeometry>
        </mxCell>
        <mxCell id="8kG_UziqjUuAXPetrYoP-213" value="N" style="edgeStyle=orthogonalEdgeStyle;rounded=0;orthogonalLoop=1;jettySize=auto;html=1;entryX=0;entryY=0.5;entryDx=0;entryDy=0;" edge="1" parent="1" source="8kG_UziqjUuAXPetrYoP-214" target="8kG_UziqjUuAXPetrYoP-164">
          <mxGeometry relative="1" as="geometry" />
        </mxCell>
        <mxCell id="8kG_UziqjUuAXPetrYoP-214" value="travels on&amp;nbsp;" style="shape=rhombus;perimeter=rhombusPerimeter;whiteSpace=wrap;html=1;align=center;" vertex="1" parent="1">
          <mxGeometry x="1570" y="655" width="120" height="70" as="geometry" />
        </mxCell>
        <mxCell id="8kG_UziqjUuAXPetrYoP-215" value="N" style="edgeStyle=orthogonalEdgeStyle;rounded=0;orthogonalLoop=1;jettySize=auto;html=1;entryX=0.5;entryY=1;entryDx=0;entryDy=0;" edge="1" parent="1" source="8kG_UziqjUuAXPetrYoP-216" target="8kG_UziqjUuAXPetrYoP-182">
          <mxGeometry relative="1" as="geometry" />
        </mxCell>
        <mxCell id="8kG_UziqjUuAXPetrYoP-216" value="Contains" style="shape=rhombus;perimeter=rhombusPerimeter;whiteSpace=wrap;html=1;align=center;" vertex="1" parent="1">
          <mxGeometry x="2565" y="2060" width="130" height="70" as="geometry" />
        </mxCell>
        <mxCell id="8kG_UziqjUuAXPetrYoP-217" value="routeLocations" style="rounded=1;arcSize=10;whiteSpace=wrap;html=1;align=center;" vertex="1" parent="1">
          <mxGeometry x="1370" y="270" width="100" height="40" as="geometry" />
        </mxCell>
        <mxCell id="8kG_UziqjUuAXPetrYoP-218" value="M" style="edgeStyle=orthogonalEdgeStyle;rounded=0;orthogonalLoop=1;jettySize=auto;html=1;entryX=0.5;entryY=1;entryDx=0;entryDy=0;" edge="1" parent="1" source="8kG_UziqjUuAXPetrYoP-219" target="8kG_UziqjUuAXPetrYoP-217">
          <mxGeometry relative="1" as="geometry">
            <mxPoint x="1420" y="320" as="targetPoint" />
            <Array as="points" />
          </mxGeometry>
        </mxCell>
        <mxCell id="8kG_UziqjUuAXPetrYoP-219" value="go through" style="shape=rhombus;perimeter=rhombusPerimeter;whiteSpace=wrap;html=1;align=center;" vertex="1" parent="1">
          <mxGeometry x="1380" y="515" width="120" height="70" as="geometry" />
        </mxCell>
        <mxCell id="8kG_UziqjUuAXPetrYoP-220" value="engineCode" style="ellipse;whiteSpace=wrap;html=1;align=center;" vertex="1" parent="1">
          <mxGeometry x="2790" y="1640" width="100" height="40" as="geometry" />
        </mxCell>
        <mxCell id="8kG_UziqjUuAXPetrYoP-221" value="" style="endArrow=none;html=1;rounded=0;" edge="1" parent="1" source="8kG_UziqjUuAXPetrYoP-182" target="8kG_UziqjUuAXPetrYoP-220">
          <mxGeometry width="50" height="50" relative="1" as="geometry">
            <mxPoint x="2840" y="2040" as="sourcePoint" />
            <mxPoint x="2890" y="1990" as="targetPoint" />
          </mxGeometry>
        </mxCell>
        <mxCell id="8kG_UziqjUuAXPetrYoP-222" value="avgSpeed" style="ellipse;whiteSpace=wrap;html=1;align=center;" vertex="1" parent="1">
          <mxGeometry x="2640" y="1805" width="80" height="40" as="geometry" />
        </mxCell>
        <mxCell id="8kG_UziqjUuAXPetrYoP-223" value="" style="endArrow=none;html=1;rounded=0;" edge="1" parent="1" source="8kG_UziqjUuAXPetrYoP-182" target="8kG_UziqjUuAXPetrYoP-222">
          <mxGeometry width="50" height="50" relative="1" as="geometry">
            <mxPoint x="2790" y="2000" as="sourcePoint" />
            <mxPoint x="2840" y="1950" as="targetPoint" />
          </mxGeometry>
        </mxCell>
        <mxCell id="8kG_UziqjUuAXPetrYoP-224" value="manufacturedYear" style="ellipse;whiteSpace=wrap;html=1;align=center;" vertex="1" parent="1">
          <mxGeometry x="2670" y="1745" width="130" height="40" as="geometry" />
        </mxCell>
        <mxCell id="8kG_UziqjUuAXPetrYoP-225" value="serviceStartedYear" style="ellipse;whiteSpace=wrap;html=1;align=center;" vertex="1" parent="1">
          <mxGeometry x="2890" y="1665" width="120" height="50" as="geometry" />
        </mxCell>
        <mxCell id="8kG_UziqjUuAXPetrYoP-226" value="" style="endArrow=none;html=1;rounded=0;" edge="1" parent="1" source="8kG_UziqjUuAXPetrYoP-182" target="8kG_UziqjUuAXPetrYoP-224">
          <mxGeometry width="50" height="50" relative="1" as="geometry">
            <mxPoint x="2680" y="1990" as="sourcePoint" />
            <mxPoint x="2730" y="1940" as="targetPoint" />
          </mxGeometry>
        </mxCell>
        <mxCell id="8kG_UziqjUuAXPetrYoP-227" value="" style="endArrow=none;html=1;rounded=0;" edge="1" parent="1" source="8kG_UziqjUuAXPetrYoP-182" target="8kG_UziqjUuAXPetrYoP-225">
          <mxGeometry width="50" height="50" relative="1" as="geometry">
            <mxPoint x="2790" y="1980" as="sourcePoint" />
            <mxPoint x="2840" y="1930" as="targetPoint" />
          </mxGeometry>
        </mxCell>
        <mxCell id="8kG_UziqjUuAXPetrYoP-228" value="totOperationHours (calculated)" style="ellipse;whiteSpace=wrap;html=1;align=center;" vertex="1" parent="1">
          <mxGeometry x="2820" y="1720" width="130" height="50" as="geometry" />
        </mxCell>
        <mxCell id="8kG_UziqjUuAXPetrYoP-229" value="" style="endArrow=none;html=1;rounded=0;" edge="1" parent="1" source="8kG_UziqjUuAXPetrYoP-182" target="8kG_UziqjUuAXPetrYoP-228">
          <mxGeometry width="50" height="50" relative="1" as="geometry">
            <mxPoint x="2630" y="1970" as="sourcePoint" />
            <mxPoint x="2680" y="1920" as="targetPoint" />
          </mxGeometry>
        </mxCell>
        <mxCell id="8kG_UziqjUuAXPetrYoP-230" value="accidentsCount" style="ellipse;whiteSpace=wrap;html=1;align=center;" vertex="1" parent="1">
          <mxGeometry x="2450" y="1760" width="100" height="40" as="geometry" />
        </mxCell>
        <mxCell id="8kG_UziqjUuAXPetrYoP-231" value="" style="endArrow=none;html=1;rounded=0;" edge="1" parent="1" source="8kG_UziqjUuAXPetrYoP-230" target="8kG_UziqjUuAXPetrYoP-182">
          <mxGeometry width="50" height="50" relative="1" as="geometry">
            <mxPoint x="2480" y="2000" as="sourcePoint" />
            <mxPoint x="2530" y="1950" as="targetPoint" />
          </mxGeometry>
        </mxCell>
        <mxCell id="8kG_UziqjUuAXPetrYoP-232" value="classLetter" style="ellipse;whiteSpace=wrap;html=1;align=center;" vertex="1" parent="1">
          <mxGeometry x="3010" y="1945" width="100" height="40" as="geometry" />
        </mxCell>
        <mxCell id="8kG_UziqjUuAXPetrYoP-233" value="" style="endArrow=none;html=1;rounded=0;" edge="1" parent="1" source="8kG_UziqjUuAXPetrYoP-232" target="8kG_UziqjUuAXPetrYoP-203">
          <mxGeometry width="50" height="50" relative="1" as="geometry">
            <mxPoint x="3030" y="2150" as="sourcePoint" />
            <mxPoint x="3080" y="2100" as="targetPoint" />
          </mxGeometry>
        </mxCell>
        <mxCell id="8kG_UziqjUuAXPetrYoP-234" value="platformID" style="ellipse;whiteSpace=wrap;html=1;align=center;fontStyle=4;" vertex="1" parent="1">
          <mxGeometry x="2500" y="1410" width="80" height="40" as="geometry" />
        </mxCell>
        <mxCell id="8kG_UziqjUuAXPetrYoP-235" value="platformNumber" style="ellipse;whiteSpace=wrap;html=1;align=center;" vertex="1" parent="1">
          <mxGeometry x="2530" y="1360" width="100" height="40" as="geometry" />
        </mxCell>
        <mxCell id="8kG_UziqjUuAXPetrYoP-236" value="status (maintain/active)&lt;span style=&quot;color: rgba(0, 0, 0, 0); font-family: monospace; font-size: 0px; text-align: start; text-wrap-mode: nowrap;&quot;&gt;%3CmxGraphModel%3E%3Croot%3E%3CmxCell%20id%3D%220%22%2F%3E%3CmxCell%20id%3D%221%22%20parent%3D%220%22%2F%3E%3CmxCell%20id%3D%222%22%20value%3D%22platformNumber%22%20style%3D%22ellipse%3BwhiteSpace%3Dwrap%3Bhtml%3D1%3Balign%3Dcenter%3B%22%20vertex%3D%221%22%20parent%3D%221%22%3E%3CmxGeometry%20x%3D%223010%22%20y%3D%22-700%22%20width%3D%22100%22%20height%3D%2240%22%20as%3D%22geometry%22%2F%3E%3C%2FmxCell%3E%3C%2Froot%3E%3C%2FmxGraphModel%3E()&lt;/span&gt;" style="ellipse;whiteSpace=wrap;html=1;align=center;" vertex="1" parent="1">
          <mxGeometry x="2650" y="1320" width="150" height="70" as="geometry" />
        </mxCell>
        <mxCell id="8kG_UziqjUuAXPetrYoP-237" value="trainStatus (active/not-active/discontinued)" style="ellipse;whiteSpace=wrap;html=1;align=center;" vertex="1" parent="1">
          <mxGeometry x="2460" y="1830" width="150" height="80" as="geometry" />
        </mxCell>
        <mxCell id="8kG_UziqjUuAXPetrYoP-238" value="" style="endArrow=none;html=1;rounded=0;" edge="1" parent="1" source="8kG_UziqjUuAXPetrYoP-237" target="8kG_UziqjUuAXPetrYoP-182">
          <mxGeometry width="50" height="50" relative="1" as="geometry">
            <mxPoint x="2580" y="2080" as="sourcePoint" />
            <mxPoint x="2630" y="2030" as="targetPoint" />
          </mxGeometry>
        </mxCell>
        <mxCell id="8kG_UziqjUuAXPetrYoP-239" value="" style="endArrow=none;html=1;rounded=0;" edge="1" parent="1" source="8kG_UziqjUuAXPetrYoP-188" target="8kG_UziqjUuAXPetrYoP-234">
          <mxGeometry width="50" height="50" relative="1" as="geometry">
            <mxPoint x="2530" y="1640" as="sourcePoint" />
            <mxPoint x="2580" y="1590" as="targetPoint" />
          </mxGeometry>
        </mxCell>
        <mxCell id="8kG_UziqjUuAXPetrYoP-240" value="" style="endArrow=none;html=1;rounded=0;" edge="1" parent="1" source="8kG_UziqjUuAXPetrYoP-188" target="8kG_UziqjUuAXPetrYoP-235">
          <mxGeometry width="50" height="50" relative="1" as="geometry">
            <mxPoint x="2460" y="1650" as="sourcePoint" />
            <mxPoint x="2510" y="1600" as="targetPoint" />
          </mxGeometry>
        </mxCell>
        <mxCell id="8kG_UziqjUuAXPetrYoP-241" value="" style="endArrow=none;html=1;rounded=0;" edge="1" parent="1" source="8kG_UziqjUuAXPetrYoP-188" target="8kG_UziqjUuAXPetrYoP-236">
          <mxGeometry width="50" height="50" relative="1" as="geometry">
            <mxPoint x="2530" y="1650" as="sourcePoint" />
            <mxPoint x="2580" y="1600" as="targetPoint" />
          </mxGeometry>
        </mxCell>
        <mxCell id="8kG_UziqjUuAXPetrYoP-242" value="routeCode" style="ellipse;whiteSpace=wrap;html=1;align=center;" vertex="1" parent="1">
          <mxGeometry x="1350" y="780" width="100" height="40" as="geometry" />
        </mxCell>
        <mxCell id="8kG_UziqjUuAXPetrYoP-243" value="" style="endArrow=none;html=1;rounded=0;" edge="1" parent="1" source="8kG_UziqjUuAXPetrYoP-242" target="8kG_UziqjUuAXPetrYoP-186">
          <mxGeometry width="50" height="50" relative="1" as="geometry">
            <mxPoint x="1420" y="850" as="sourcePoint" />
            <mxPoint x="1470" y="800" as="targetPoint" />
          </mxGeometry>
        </mxCell>
        <mxCell id="8kG_UziqjUuAXPetrYoP-244" value="districtID" style="ellipse;whiteSpace=wrap;html=1;align=center;fontStyle=4;" vertex="1" parent="1">
          <mxGeometry x="1230" y="230" width="100" height="40" as="geometry" />
        </mxCell>
        <mxCell id="8kG_UziqjUuAXPetrYoP-245" value="districtName" style="ellipse;whiteSpace=wrap;html=1;align=center;" vertex="1" parent="1">
          <mxGeometry x="1340" y="190" width="100" height="40" as="geometry" />
        </mxCell>
        <mxCell id="8kG_UziqjUuAXPetrYoP-246" value="locationName" style="ellipse;whiteSpace=wrap;html=1;align=center;" vertex="1" parent="1">
          <mxGeometry x="1460" y="200" width="100" height="40" as="geometry" />
        </mxCell>
        <mxCell id="8kG_UziqjUuAXPetrYoP-247" value="province" style="ellipse;whiteSpace=wrap;html=1;align=center;" vertex="1" parent="1">
          <mxGeometry x="1520" y="260" width="100" height="40" as="geometry" />
        </mxCell>
        <mxCell id="8kG_UziqjUuAXPetrYoP-248" value="" style="endArrow=none;html=1;rounded=0;" edge="1" parent="1" source="8kG_UziqjUuAXPetrYoP-217" target="8kG_UziqjUuAXPetrYoP-244">
          <mxGeometry width="50" height="50" relative="1" as="geometry">
            <mxPoint x="1280" y="390" as="sourcePoint" />
            <mxPoint x="1330" y="340" as="targetPoint" />
          </mxGeometry>
        </mxCell>
        <mxCell id="8kG_UziqjUuAXPetrYoP-249" value="" style="endArrow=none;html=1;rounded=0;" edge="1" parent="1" source="8kG_UziqjUuAXPetrYoP-217" target="8kG_UziqjUuAXPetrYoP-245">
          <mxGeometry width="50" height="50" relative="1" as="geometry">
            <mxPoint x="1210" y="370" as="sourcePoint" />
            <mxPoint x="1260" y="320" as="targetPoint" />
          </mxGeometry>
        </mxCell>
        <mxCell id="8kG_UziqjUuAXPetrYoP-250" value="" style="endArrow=none;html=1;rounded=0;" edge="1" parent="1" source="8kG_UziqjUuAXPetrYoP-217" target="8kG_UziqjUuAXPetrYoP-246">
          <mxGeometry width="50" height="50" relative="1" as="geometry">
            <mxPoint x="1310" y="350" as="sourcePoint" />
            <mxPoint x="1360" y="300" as="targetPoint" />
          </mxGeometry>
        </mxCell>
        <mxCell id="8kG_UziqjUuAXPetrYoP-251" value="" style="endArrow=none;html=1;rounded=0;" edge="1" parent="1" source="8kG_UziqjUuAXPetrYoP-217" target="8kG_UziqjUuAXPetrYoP-247">
          <mxGeometry width="50" height="50" relative="1" as="geometry">
            <mxPoint x="1190" y="390" as="sourcePoint" />
            <mxPoint x="1240" y="340" as="targetPoint" />
          </mxGeometry>
        </mxCell>
        <mxCell id="8kG_UziqjUuAXPetrYoP-252" value="routeStatus (active/not-active/removed)" style="ellipse;whiteSpace=wrap;html=1;align=center;" vertex="1" parent="1">
          <mxGeometry x="1470" y="760" width="160" height="70" as="geometry" />
        </mxCell>
        <mxCell id="8kG_UziqjUuAXPetrYoP-253" value="" style="endArrow=none;html=1;rounded=0;" edge="1" parent="1" source="8kG_UziqjUuAXPetrYoP-252" target="8kG_UziqjUuAXPetrYoP-186">
          <mxGeometry width="50" height="50" relative="1" as="geometry">
            <mxPoint x="1620" y="950" as="sourcePoint" />
            <mxPoint x="1670" y="900" as="targetPoint" />
          </mxGeometry>
        </mxCell>
        <mxCell id="8kG_UziqjUuAXPetrYoP-254" value="1" style="edgeStyle=orthogonalEdgeStyle;rounded=0;orthogonalLoop=1;jettySize=auto;html=1;entryX=0;entryY=0.5;entryDx=0;entryDy=0;" edge="1" parent="1" source="8kG_UziqjUuAXPetrYoP-255" target="8kG_UziqjUuAXPetrYoP-217">
          <mxGeometry relative="1" as="geometry" />
        </mxCell>
        <mxCell id="8kG_UziqjUuAXPetrYoP-255" value="station belongs" style="shape=rhombus;perimeter=rhombusPerimeter;whiteSpace=wrap;html=1;align=center;" vertex="1" parent="1">
          <mxGeometry x="950" y="280" width="120" height="60" as="geometry" />
        </mxCell>
        <mxCell id="8kG_UziqjUuAXPetrYoP-256" value="startStation" style="ellipse;whiteSpace=wrap;html=1;align=center;" vertex="1" parent="1">
          <mxGeometry x="1180" y="630" width="100" height="40" as="geometry" />
        </mxCell>
        <mxCell id="8kG_UziqjUuAXPetrYoP-257" value="endingStation" style="ellipse;whiteSpace=wrap;html=1;align=center;" vertex="1" parent="1">
          <mxGeometry x="1240" y="815" width="100" height="40" as="geometry" />
        </mxCell>
        <mxCell id="8kG_UziqjUuAXPetrYoP-258" value="" style="endArrow=none;html=1;rounded=0;" edge="1" parent="1" source="8kG_UziqjUuAXPetrYoP-186" target="8kG_UziqjUuAXPetrYoP-256">
          <mxGeometry width="50" height="50" relative="1" as="geometry">
            <mxPoint x="1280" y="930" as="sourcePoint" />
            <mxPoint x="1330" y="880" as="targetPoint" />
          </mxGeometry>
        </mxCell>
        <mxCell id="8kG_UziqjUuAXPetrYoP-259" value="" style="endArrow=none;html=1;rounded=0;" edge="1" parent="1" source="8kG_UziqjUuAXPetrYoP-186" target="8kG_UziqjUuAXPetrYoP-257">
          <mxGeometry width="50" height="50" relative="1" as="geometry">
            <mxPoint x="1230" y="950" as="sourcePoint" />
            <mxPoint x="1280" y="900" as="targetPoint" />
          </mxGeometry>
        </mxCell>
        <mxCell id="8kG_UziqjUuAXPetrYoP-260" value="M" style="edgeStyle=orthogonalEdgeStyle;rounded=0;orthogonalLoop=1;jettySize=auto;html=1;entryX=0.5;entryY=1;entryDx=0;entryDy=0;" edge="1" parent="1" source="8kG_UziqjUuAXPetrYoP-261" target="8kG_UziqjUuAXPetrYoP-134">
          <mxGeometry relative="1" as="geometry" />
        </mxCell>
        <mxCell id="8kG_UziqjUuAXPetrYoP-261" value="which route belongs" style="shape=rhombus;perimeter=rhombusPerimeter;whiteSpace=wrap;html=1;align=center;" vertex="1" parent="1">
          <mxGeometry x="1120" y="745" width="140" height="65" as="geometry" />
        </mxCell>
        <mxCell id="8kG_UziqjUuAXPetrYoP-262" value="stationID" style="ellipse;whiteSpace=wrap;html=1;align=center;fontStyle=4;" vertex="1" parent="1">
          <mxGeometry x="960.5" y="640" width="65" height="40" as="geometry" />
        </mxCell>
        <mxCell id="8kG_UziqjUuAXPetrYoP-263" value="stationName" style="ellipse;whiteSpace=wrap;html=1;align=center;" vertex="1" parent="1">
          <mxGeometry x="817.5" y="640" width="85" height="40" as="geometry" />
        </mxCell>
        <mxCell id="8kG_UziqjUuAXPetrYoP-264" value="stationCode" style="ellipse;whiteSpace=wrap;html=1;align=center;" vertex="1" parent="1">
          <mxGeometry x="770" y="760" width="85" height="40" as="geometry" />
        </mxCell>
        <mxCell id="8kG_UziqjUuAXPetrYoP-265" value="elavation" style="ellipse;whiteSpace=wrap;html=1;align=center;" vertex="1" parent="1">
          <mxGeometry x="860" y="800" width="60" height="40" as="geometry" />
        </mxCell>
        <mxCell id="8kG_UziqjUuAXPetrYoP-266" value="" style="endArrow=none;html=1;rounded=0;" edge="1" parent="1" source="8kG_UziqjUuAXPetrYoP-134" target="8kG_UziqjUuAXPetrYoP-262">
          <mxGeometry width="50" height="50" relative="1" as="geometry">
            <mxPoint x="890" y="850" as="sourcePoint" />
            <mxPoint x="940" y="800" as="targetPoint" />
          </mxGeometry>
        </mxCell>
        <mxCell id="8kG_UziqjUuAXPetrYoP-267" value="" style="endArrow=none;html=1;rounded=0;" edge="1" parent="1" source="8kG_UziqjUuAXPetrYoP-134" target="8kG_UziqjUuAXPetrYoP-263">
          <mxGeometry width="50" height="50" relative="1" as="geometry">
            <mxPoint x="870" y="870" as="sourcePoint" />
            <mxPoint x="920" y="820" as="targetPoint" />
          </mxGeometry>
        </mxCell>
        <mxCell id="8kG_UziqjUuAXPetrYoP-268" value="" style="endArrow=none;html=1;rounded=0;" edge="1" parent="1" source="8kG_UziqjUuAXPetrYoP-134" target="8kG_UziqjUuAXPetrYoP-264">
          <mxGeometry width="50" height="50" relative="1" as="geometry">
            <mxPoint x="750" y="930" as="sourcePoint" />
            <mxPoint x="800" y="880" as="targetPoint" />
          </mxGeometry>
        </mxCell>
        <mxCell id="8kG_UziqjUuAXPetrYoP-269" value="" style="endArrow=none;html=1;rounded=0;" edge="1" parent="1" source="8kG_UziqjUuAXPetrYoP-134" target="8kG_UziqjUuAXPetrYoP-265">
          <mxGeometry width="50" height="50" relative="1" as="geometry">
            <mxPoint x="840" y="960" as="sourcePoint" />
            <mxPoint x="890" y="910" as="targetPoint" />
          </mxGeometry>
        </mxCell>
        <mxCell id="8kG_UziqjUuAXPetrYoP-270" value="type (station master/normal)" style="ellipse;whiteSpace=wrap;html=1;align=center;" vertex="1" parent="1">
          <mxGeometry x="980" y="1920" width="100" height="40" as="geometry" />
        </mxCell>
        <mxCell id="8kG_UziqjUuAXPetrYoP-271" value="" style="endArrow=none;html=1;rounded=0;" edge="1" parent="1" source="8kG_UziqjUuAXPetrYoP-270" target="8kG_UziqjUuAXPetrYoP-91">
          <mxGeometry width="50" height="50" relative="1" as="geometry">
            <mxPoint x="990" y="2290" as="sourcePoint" />
            <mxPoint x="1040" y="2240" as="targetPoint" />
          </mxGeometry>
        </mxCell>
        <mxCell id="8kG_UziqjUuAXPetrYoP-272" value="Distance in KM - from Fort" style="ellipse;whiteSpace=wrap;html=1;align=center;" vertex="1" parent="1">
          <mxGeometry x="810" y="910" width="160" height="40" as="geometry" />
        </mxCell>
        <mxCell id="8kG_UziqjUuAXPetrYoP-273" value="" style="endArrow=none;html=1;rounded=0;" edge="1" parent="1" source="8kG_UziqjUuAXPetrYoP-272" target="8kG_UziqjUuAXPetrYoP-134">
          <mxGeometry width="50" height="50" relative="1" as="geometry">
            <mxPoint x="980" y="950" as="sourcePoint" />
            <mxPoint x="1030" y="900" as="targetPoint" />
          </mxGeometry>
        </mxCell>
        <mxCell id="8kG_UziqjUuAXPetrYoP-274" value="contactNo" style="ellipse;whiteSpace=wrap;html=1;align=center;" vertex="1" parent="1">
          <mxGeometry x="970" y="830" width="60" height="40" as="geometry" />
        </mxCell>
        <mxCell id="8kG_UziqjUuAXPetrYoP-275" value="" style="endArrow=none;html=1;rounded=0;" edge="1" parent="1" source="8kG_UziqjUuAXPetrYoP-134" target="8kG_UziqjUuAXPetrYoP-274">
          <mxGeometry width="50" height="50" relative="1" as="geometry">
            <mxPoint x="970" y="1030" as="sourcePoint" />
            <mxPoint x="1020" y="980" as="targetPoint" />
          </mxGeometry>
        </mxCell>
        <mxCell id="8kG_UziqjUuAXPetrYoP-276" value="classID" style="ellipse;whiteSpace=wrap;html=1;align=center;fontStyle=4;" vertex="1" parent="1">
          <mxGeometry x="1730" y="310" width="60" height="40" as="geometry" />
        </mxCell>
        <mxCell id="8kG_UziqjUuAXPetrYoP-277" value="className" style="ellipse;whiteSpace=wrap;html=1;align=center;" vertex="1" parent="1">
          <mxGeometry x="1677.5" y="405" width="85" height="40" as="geometry" />
        </mxCell>
        <mxCell id="8kG_UziqjUuAXPetrYoP-278" value="pricePerPerson" style="ellipse;whiteSpace=wrap;html=1;align=center;" vertex="1" parent="1">
          <mxGeometry x="1640" y="350" width="100" height="40" as="geometry" />
        </mxCell>
        <mxCell id="8kG_UziqjUuAXPetrYoP-279" value="" style="endArrow=none;html=1;rounded=0;" edge="1" parent="1" source="8kG_UziqjUuAXPetrYoP-136" target="8kG_UziqjUuAXPetrYoP-276">
          <mxGeometry width="50" height="50" relative="1" as="geometry">
            <mxPoint x="1780" y="500" as="sourcePoint" />
            <mxPoint x="1830" y="450" as="targetPoint" />
          </mxGeometry>
        </mxCell>
        <mxCell id="8kG_UziqjUuAXPetrYoP-280" value="" style="endArrow=none;html=1;rounded=0;" edge="1" parent="1" source="8kG_UziqjUuAXPetrYoP-136" target="8kG_UziqjUuAXPetrYoP-278">
          <mxGeometry width="50" height="50" relative="1" as="geometry">
            <mxPoint x="1680" y="500" as="sourcePoint" />
            <mxPoint x="1730" y="450" as="targetPoint" />
          </mxGeometry>
        </mxCell>
        <mxCell id="8kG_UziqjUuAXPetrYoP-281" value="" style="endArrow=none;html=1;rounded=0;" edge="1" parent="1" source="8kG_UziqjUuAXPetrYoP-277" target="8kG_UziqjUuAXPetrYoP-136">
          <mxGeometry width="50" height="50" relative="1" as="geometry">
            <mxPoint x="1780" y="510" as="sourcePoint" />
            <mxPoint x="1830" y="460" as="targetPoint" />
          </mxGeometry>
        </mxCell>
        <mxCell id="8kG_UziqjUuAXPetrYoP-282" value="seatCount" style="rounded=1;arcSize=10;whiteSpace=wrap;html=1;align=center;" vertex="1" parent="1">
          <mxGeometry x="2130" y="240" width="70" height="40" as="geometry" />
        </mxCell>
        <mxCell id="8kG_UziqjUuAXPetrYoP-283" value="countID" style="ellipse;whiteSpace=wrap;html=1;align=center;fontStyle=4;" vertex="1" parent="1">
          <mxGeometry x="2020" y="170" width="70" height="40" as="geometry" />
        </mxCell>
        <mxCell id="8kG_UziqjUuAXPetrYoP-284" value="seatRemainingCount" style="ellipse;whiteSpace=wrap;html=1;align=center;" vertex="1" parent="1">
          <mxGeometry x="2120" y="160" width="140" height="40" as="geometry" />
        </mxCell>
        <mxCell id="8kG_UziqjUuAXPetrYoP-285" value="totalCapacity" style="ellipse;whiteSpace=wrap;html=1;align=center;" vertex="1" parent="1">
          <mxGeometry x="2240" y="210" width="100" height="40" as="geometry" />
        </mxCell>
        <mxCell id="8kG_UziqjUuAXPetrYoP-286" value="" style="endArrow=none;html=1;rounded=0;" edge="1" parent="1" source="8kG_UziqjUuAXPetrYoP-282" target="8kG_UziqjUuAXPetrYoP-283">
          <mxGeometry width="50" height="50" relative="1" as="geometry">
            <mxPoint x="1970" y="490" as="sourcePoint" />
            <mxPoint x="2020" y="440" as="targetPoint" />
          </mxGeometry>
        </mxCell>
        <mxCell id="8kG_UziqjUuAXPetrYoP-287" value="" style="endArrow=none;html=1;rounded=0;exitX=0.5;exitY=0;exitDx=0;exitDy=0;" edge="1" parent="1" source="8kG_UziqjUuAXPetrYoP-282" target="8kG_UziqjUuAXPetrYoP-284">
          <mxGeometry width="50" height="50" relative="1" as="geometry">
            <mxPoint x="2180" y="470" as="sourcePoint" />
            <mxPoint x="2230" y="420" as="targetPoint" />
          </mxGeometry>
        </mxCell>
        <mxCell id="8kG_UziqjUuAXPetrYoP-288" value="" style="endArrow=none;html=1;rounded=0;" edge="1" parent="1" source="8kG_UziqjUuAXPetrYoP-282" target="8kG_UziqjUuAXPetrYoP-285">
          <mxGeometry width="50" height="50" relative="1" as="geometry">
            <mxPoint x="2220" y="490" as="sourcePoint" />
            <mxPoint x="2270" y="440" as="targetPoint" />
          </mxGeometry>
        </mxCell>
        <mxCell id="8kG_UziqjUuAXPetrYoP-289" value="M" style="edgeStyle=orthogonalEdgeStyle;rounded=0;orthogonalLoop=1;jettySize=auto;html=1;" edge="1" parent="1" source="8kG_UziqjUuAXPetrYoP-290" target="8kG_UziqjUuAXPetrYoP-282">
          <mxGeometry relative="1" as="geometry" />
        </mxCell>
        <mxCell id="8kG_UziqjUuAXPetrYoP-290" value="belongs to" style="shape=rhombus;perimeter=rhombusPerimeter;whiteSpace=wrap;html=1;align=center;" vertex="1" parent="1">
          <mxGeometry x="2100" y="350" width="120" height="70" as="geometry" />
        </mxCell>
        <mxCell id="8kG_UziqjUuAXPetrYoP-291" value="status" style="ellipse;whiteSpace=wrap;html=1;align=center;" vertex="1" parent="1">
          <mxGeometry x="1870" y="1230" width="70" height="40" as="geometry" />
        </mxCell>
        <mxCell id="8kG_UziqjUuAXPetrYoP-292" value="" style="endArrow=none;html=1;rounded=0;" edge="1" parent="1" source="8kG_UziqjUuAXPetrYoP-291" target="8kG_UziqjUuAXPetrYoP-127">
          <mxGeometry width="50" height="50" relative="1" as="geometry">
            <mxPoint x="1940" y="1440" as="sourcePoint" />
            <mxPoint x="1990" y="1390" as="targetPoint" />
          </mxGeometry>
        </mxCell>
        <mxCell id="8kG_UziqjUuAXPetrYoP-293" value="ticketID" style="ellipse;whiteSpace=wrap;html=1;align=center;fontStyle=4;" vertex="1" parent="1">
          <mxGeometry x="2350" y="950" width="70" height="40" as="geometry" />
        </mxCell>
        <mxCell id="8kG_UziqjUuAXPetrYoP-294" value="date/time" style="ellipse;whiteSpace=wrap;html=1;align=center;" vertex="1" parent="1">
          <mxGeometry x="2345" y="910" width="70" height="30" as="geometry" />
        </mxCell>
        <mxCell id="8kG_UziqjUuAXPetrYoP-295" value="status" style="ellipse;whiteSpace=wrap;html=1;align=center;" vertex="1" parent="1">
          <mxGeometry x="2345" y="840" width="60" height="40" as="geometry" />
        </mxCell>
        <mxCell id="8kG_UziqjUuAXPetrYoP-296" value="reservedSeatCount" style="ellipse;whiteSpace=wrap;html=1;align=center;" vertex="1" parent="1">
          <mxGeometry x="2200" y="810" width="120" height="50" as="geometry" />
        </mxCell>
        <mxCell id="8kG_UziqjUuAXPetrYoP-297" value="price" style="ellipse;whiteSpace=wrap;html=1;align=center;" vertex="1" parent="1">
          <mxGeometry x="2270" y="870" width="60" height="40" as="geometry" />
        </mxCell>
        <mxCell id="8kG_UziqjUuAXPetrYoP-298" value="" style="endArrow=none;html=1;rounded=0;" edge="1" parent="1" source="8kG_UziqjUuAXPetrYoP-128" target="8kG_UziqjUuAXPetrYoP-296">
          <mxGeometry width="50" height="50" relative="1" as="geometry">
            <mxPoint x="2320" y="1070" as="sourcePoint" />
            <mxPoint x="2370" y="1020" as="targetPoint" />
          </mxGeometry>
        </mxCell>
        <mxCell id="8kG_UziqjUuAXPetrYoP-299" value="" style="endArrow=none;html=1;rounded=0;" edge="1" parent="1" source="8kG_UziqjUuAXPetrYoP-128" target="8kG_UziqjUuAXPetrYoP-297">
          <mxGeometry width="50" height="50" relative="1" as="geometry">
            <mxPoint x="2370" y="1030" as="sourcePoint" />
            <mxPoint x="2420" y="980" as="targetPoint" />
          </mxGeometry>
        </mxCell>
        <mxCell id="8kG_UziqjUuAXPetrYoP-300" value="" style="endArrow=none;html=1;rounded=0;" edge="1" parent="1" source="8kG_UziqjUuAXPetrYoP-128" target="8kG_UziqjUuAXPetrYoP-295">
          <mxGeometry width="50" height="50" relative="1" as="geometry">
            <mxPoint x="2290" y="1070" as="sourcePoint" />
            <mxPoint x="2360.710678118655" y="1020" as="targetPoint" />
          </mxGeometry>
        </mxCell>
        <mxCell id="8kG_UziqjUuAXPetrYoP-301" value="" style="endArrow=none;html=1;rounded=0;" edge="1" parent="1" source="8kG_UziqjUuAXPetrYoP-128" target="8kG_UziqjUuAXPetrYoP-294">
          <mxGeometry width="50" height="50" relative="1" as="geometry">
            <mxPoint x="2340" y="1080" as="sourcePoint" />
            <mxPoint x="2390" y="1030" as="targetPoint" />
          </mxGeometry>
        </mxCell>
        <mxCell id="8kG_UziqjUuAXPetrYoP-302" value="" style="endArrow=none;html=1;rounded=0;" edge="1" parent="1" source="8kG_UziqjUuAXPetrYoP-128" target="8kG_UziqjUuAXPetrYoP-293">
          <mxGeometry width="50" height="50" relative="1" as="geometry">
            <mxPoint x="2290" y="1070" as="sourcePoint" />
            <mxPoint x="2340" y="1020" as="targetPoint" />
          </mxGeometry>
        </mxCell>
        <mxCell id="8kG_UziqjUuAXPetrYoP-303" value="M" style="edgeStyle=orthogonalEdgeStyle;rounded=0;orthogonalLoop=1;jettySize=auto;html=1;entryX=0.14;entryY=0.03;entryDx=0;entryDy=0;entryPerimeter=0;" edge="1" parent="1" source="8kG_UziqjUuAXPetrYoP-304" target="8kG_UziqjUuAXPetrYoP-128">
          <mxGeometry relative="1" as="geometry">
            <mxPoint x="2139.9999999999995" y="960" as="targetPoint" />
          </mxGeometry>
        </mxCell>
        <mxCell id="8kG_UziqjUuAXPetrYoP-304" value="booked for" style="shape=rhombus;perimeter=rhombusPerimeter;whiteSpace=wrap;html=1;align=center;" vertex="1" parent="1">
          <mxGeometry x="1970" y="830" width="120" height="60" as="geometry" />
        </mxCell>
        <mxCell id="8kG_UziqjUuAXPetrYoP-305" value="ID" style="ellipse;whiteSpace=wrap;html=1;align=center;fontStyle=4;" vertex="1" parent="1">
          <mxGeometry x="2395" y="515" width="65" height="40" as="geometry" />
        </mxCell>
        <mxCell id="8kG_UziqjUuAXPetrYoP-306" value="paymentType" style="ellipse;whiteSpace=wrap;html=1;align=center;" vertex="1" parent="1">
          <mxGeometry x="2290" y="405" width="80" height="40" as="geometry" />
        </mxCell>
        <mxCell id="8kG_UziqjUuAXPetrYoP-307" value="status" style="ellipse;whiteSpace=wrap;html=1;align=center;" vertex="1" parent="1">
          <mxGeometry x="2225" y="410" width="50" height="40" as="geometry" />
        </mxCell>
        <mxCell id="8kG_UziqjUuAXPetrYoP-308" value="serviceName" style="ellipse;whiteSpace=wrap;html=1;align=center;" vertex="1" parent="1">
          <mxGeometry x="2405" y="405" width="95" height="40" as="geometry" />
        </mxCell>
        <mxCell id="8kG_UziqjUuAXPetrYoP-309" value="time/date" style="ellipse;whiteSpace=wrap;html=1;align=center;" vertex="1" parent="1">
          <mxGeometry x="2407.5" y="560" width="80" height="40" as="geometry" />
        </mxCell>
        <mxCell id="8kG_UziqjUuAXPetrYoP-310" value="" style="endArrow=none;html=1;rounded=0;" edge="1" parent="1" source="8kG_UziqjUuAXPetrYoP-138" target="8kG_UziqjUuAXPetrYoP-307">
          <mxGeometry width="50" height="50" relative="1" as="geometry">
            <mxPoint x="2110" y="660" as="sourcePoint" />
            <mxPoint x="2160" y="610" as="targetPoint" />
          </mxGeometry>
        </mxCell>
        <mxCell id="8kG_UziqjUuAXPetrYoP-311" value="" style="endArrow=none;html=1;rounded=0;" edge="1" parent="1" source="8kG_UziqjUuAXPetrYoP-138" target="8kG_UziqjUuAXPetrYoP-306">
          <mxGeometry width="50" height="50" relative="1" as="geometry">
            <mxPoint x="2110" y="750" as="sourcePoint" />
            <mxPoint x="2160" y="700" as="targetPoint" />
          </mxGeometry>
        </mxCell>
        <mxCell id="8kG_UziqjUuAXPetrYoP-312" value="" style="endArrow=none;html=1;rounded=0;" edge="1" parent="1" source="8kG_UziqjUuAXPetrYoP-138" target="8kG_UziqjUuAXPetrYoP-308">
          <mxGeometry width="50" height="50" relative="1" as="geometry">
            <mxPoint x="2000" y="800" as="sourcePoint" />
            <mxPoint x="2050" y="750" as="targetPoint" />
          </mxGeometry>
        </mxCell>
        <mxCell id="8kG_UziqjUuAXPetrYoP-313" value="" style="endArrow=none;html=1;rounded=0;" edge="1" parent="1" source="8kG_UziqjUuAXPetrYoP-138" target="8kG_UziqjUuAXPetrYoP-305">
          <mxGeometry width="50" height="50" relative="1" as="geometry">
            <mxPoint x="2210" y="750" as="sourcePoint" />
            <mxPoint x="2260" y="700" as="targetPoint" />
          </mxGeometry>
        </mxCell>
        <mxCell id="8kG_UziqjUuAXPetrYoP-314" value="" style="endArrow=none;html=1;rounded=0;" edge="1" parent="1" source="8kG_UziqjUuAXPetrYoP-138" target="8kG_UziqjUuAXPetrYoP-309">
          <mxGeometry width="50" height="50" relative="1" as="geometry">
            <mxPoint x="2270" y="830" as="sourcePoint" />
            <mxPoint x="2320" y="780" as="targetPoint" />
          </mxGeometry>
        </mxCell>
        <mxCell id="8kG_UziqjUuAXPetrYoP-315" value="ID" style="ellipse;whiteSpace=wrap;html=1;align=center;fontStyle=4;" vertex="1" parent="1">
          <mxGeometry x="2400" y="1310" width="50" height="40" as="geometry" />
        </mxCell>
        <mxCell id="8kG_UziqjUuAXPetrYoP-316" value="" style="endArrow=none;html=1;rounded=0;" edge="1" parent="1" source="8kG_UziqjUuAXPetrYoP-129" target="8kG_UziqjUuAXPetrYoP-315">
          <mxGeometry width="50" height="50" relative="1" as="geometry">
            <mxPoint x="2280" y="1500" as="sourcePoint" />
            <mxPoint x="2330" y="1450" as="targetPoint" />
          </mxGeometry>
        </mxCell>
        <mxCell id="8kG_UziqjUuAXPetrYoP-317" value="date/time" style="ellipse;whiteSpace=wrap;html=1;align=center;" vertex="1" parent="1">
          <mxGeometry x="2350" y="1260" width="70" height="40" as="geometry" />
        </mxCell>
        <mxCell id="8kG_UziqjUuAXPetrYoP-318" value="" style="endArrow=none;html=1;rounded=0;" edge="1" parent="1" source="8kG_UziqjUuAXPetrYoP-129" target="8kG_UziqjUuAXPetrYoP-317">
          <mxGeometry width="50" height="50" relative="1" as="geometry">
            <mxPoint x="2240" y="1460" as="sourcePoint" />
            <mxPoint x="2290" y="1410" as="targetPoint" />
          </mxGeometry>
        </mxCell>
        <mxCell id="8kG_UziqjUuAXPetrYoP-319" value="ID" style="ellipse;whiteSpace=wrap;html=1;align=center;fontStyle=4;" vertex="1" parent="1">
          <mxGeometry x="950" y="1000" width="86" height="40" as="geometry" />
        </mxCell>
        <mxCell id="8kG_UziqjUuAXPetrYoP-320" value="" style="endArrow=none;html=1;rounded=0;" edge="1" parent="1" source="8kG_UziqjUuAXPetrYoP-130" target="8kG_UziqjUuAXPetrYoP-319">
          <mxGeometry width="50" height="50" relative="1" as="geometry">
            <mxPoint x="910" y="1300" as="sourcePoint" />
            <mxPoint x="960" y="1250" as="targetPoint" />
          </mxGeometry>
        </mxCell>
        <mxCell id="8kG_UziqjUuAXPetrYoP-321" value="1" style="edgeStyle=orthogonalEdgeStyle;rounded=0;orthogonalLoop=1;jettySize=auto;html=1;entryX=0;entryY=0;entryDx=0;entryDy=0;" edge="1" parent="1" source="8kG_UziqjUuAXPetrYoP-322" target="8kG_UziqjUuAXPetrYoP-134">
          <mxGeometry relative="1" as="geometry">
            <mxPoint x="950" y="720" as="targetPoint" />
            <Array as="points">
              <mxPoint x="300" y="700" />
              <mxPoint x="820" y="700" />
              <mxPoint x="820" y="720" />
            </Array>
          </mxGeometry>
        </mxCell>
        <mxCell id="8kG_UziqjUuAXPetrYoP-322" value="works in" style="shape=rhombus;perimeter=rhombusPerimeter;whiteSpace=wrap;html=1;align=center;" vertex="1" parent="1">
          <mxGeometry x="240" y="1650" width="120" height="60" as="geometry" />
        </mxCell>
        <mxCell id="8kG_UziqjUuAXPetrYoP-323" value="return (location or &quot;no return&quot;)" style="ellipse;whiteSpace=wrap;html=1;align=center;" vertex="1" parent="1">
          <mxGeometry x="2300" y="1080" width="110" height="60" as="geometry" />
        </mxCell>
        <mxCell id="8kG_UziqjUuAXPetrYoP-324" value="" style="endArrow=none;html=1;rounded=0;" edge="1" parent="1" source="8kG_UziqjUuAXPetrYoP-128" target="8kG_UziqjUuAXPetrYoP-323">
          <mxGeometry width="50" height="50" relative="1" as="geometry">
            <mxPoint x="2210" y="1200" as="sourcePoint" />
            <mxPoint x="2260" y="1150" as="targetPoint" />
          </mxGeometry>
        </mxCell>
        <mxCell id="8kG_UziqjUuAXPetrYoP-325" value="autoDaySettings" style="rounded=1;arcSize=10;whiteSpace=wrap;html=1;align=center;" vertex="1" parent="1">
          <mxGeometry x="1670" y="885" width="100" height="40" as="geometry" />
        </mxCell>
        <mxCell id="8kG_UziqjUuAXPetrYoP-326" value="M" style="edgeStyle=orthogonalEdgeStyle;rounded=0;orthogonalLoop=1;jettySize=auto;html=1;entryX=1;entryY=0.25;entryDx=0;entryDy=0;" edge="1" parent="1" source="8kG_UziqjUuAXPetrYoP-327" target="8kG_UziqjUuAXPetrYoP-325">
          <mxGeometry relative="1" as="geometry" />
        </mxCell>
        <mxCell id="8kG_UziqjUuAXPetrYoP-327" value="has" style="shape=rhombus;perimeter=rhombusPerimeter;whiteSpace=wrap;html=1;align=center;" vertex="1" parent="1">
          <mxGeometry x="1740" y="960" width="90" height="60" as="geometry" />
        </mxCell>
        <mxCell id="8kG_UziqjUuAXPetrYoP-328" value="ID" style="ellipse;whiteSpace=wrap;html=1;align=center;fontStyle=4;" vertex="1" parent="1">
          <mxGeometry x="1637.5" y="820" width="40" height="40" as="geometry" />
        </mxCell>
        <mxCell id="8kG_UziqjUuAXPetrYoP-329" value="applyFor (every month/day/year)" style="ellipse;whiteSpace=wrap;html=1;align=center;" vertex="1" parent="1">
          <mxGeometry x="1497.5" y="860" width="140" height="45" as="geometry" />
        </mxCell>
        <mxCell id="8kG_UziqjUuAXPetrYoP-330" value="dayNames" style="ellipse;whiteSpace=wrap;html=1;align=center;" vertex="1" parent="1">
          <mxGeometry x="1480" y="930" width="100" height="40" as="geometry" />
        </mxCell>
        <mxCell id="8kG_UziqjUuAXPetrYoP-331" value="startTime" style="ellipse;whiteSpace=wrap;html=1;align=center;" vertex="1" parent="1">
          <mxGeometry x="1617.5" y="945" width="80" height="40" as="geometry" />
        </mxCell>
        <mxCell id="8kG_UziqjUuAXPetrYoP-332" value="endTime" style="ellipse;whiteSpace=wrap;html=1;align=center;" vertex="1" parent="1">
          <mxGeometry x="1690" y="815" width="80" height="40" as="geometry" />
        </mxCell>
        <mxCell id="8kG_UziqjUuAXPetrYoP-333" value="" style="endArrow=none;html=1;rounded=0;" edge="1" parent="1" source="8kG_UziqjUuAXPetrYoP-325" target="8kG_UziqjUuAXPetrYoP-328">
          <mxGeometry width="50" height="50" relative="1" as="geometry">
            <mxPoint x="1530" y="1070" as="sourcePoint" />
            <mxPoint x="1580" y="1020" as="targetPoint" />
          </mxGeometry>
        </mxCell>
        <mxCell id="8kG_UziqjUuAXPetrYoP-334" value="" style="endArrow=none;html=1;rounded=0;" edge="1" parent="1" source="8kG_UziqjUuAXPetrYoP-325" target="8kG_UziqjUuAXPetrYoP-332">
          <mxGeometry width="50" height="50" relative="1" as="geometry">
            <mxPoint x="1610" y="1040" as="sourcePoint" />
            <mxPoint x="1660" y="990" as="targetPoint" />
          </mxGeometry>
        </mxCell>
        <mxCell id="8kG_UziqjUuAXPetrYoP-335" value="" style="endArrow=none;html=1;rounded=0;" edge="1" parent="1" source="8kG_UziqjUuAXPetrYoP-325" target="8kG_UziqjUuAXPetrYoP-329">
          <mxGeometry width="50" height="50" relative="1" as="geometry">
            <mxPoint x="1740" y="1080" as="sourcePoint" />
            <mxPoint x="1790" y="1030" as="targetPoint" />
          </mxGeometry>
        </mxCell>
        <mxCell id="8kG_UziqjUuAXPetrYoP-336" value="" style="endArrow=none;html=1;rounded=0;" edge="1" parent="1" source="8kG_UziqjUuAXPetrYoP-325" target="8kG_UziqjUuAXPetrYoP-331">
          <mxGeometry width="50" height="50" relative="1" as="geometry">
            <mxPoint x="1660" y="1130" as="sourcePoint" />
            <mxPoint x="1710" y="1080" as="targetPoint" />
          </mxGeometry>
        </mxCell>
        <mxCell id="8kG_UziqjUuAXPetrYoP-337" value="" style="endArrow=none;html=1;rounded=0;" edge="1" parent="1" source="8kG_UziqjUuAXPetrYoP-325" target="8kG_UziqjUuAXPetrYoP-330">
          <mxGeometry width="50" height="50" relative="1" as="geometry">
            <mxPoint x="1410" y="1130" as="sourcePoint" />
            <mxPoint x="1460" y="1080" as="targetPoint" />
          </mxGeometry>
        </mxCell>
        <mxCell id="8kG_UziqjUuAXPetrYoP-338" value="&lt;a href=&quot;https://lk.lakpura.com/pages/train-routes&quot;&gt;Train Routes – Lakpura®&lt;/a&gt;&lt;div&gt;&lt;a href=&quot;https://en.wikipedia.org/wiki/List_of_railway_stations_in_Sri_Lanka_by_line&quot;&gt;List of railway stations in Sri Lanka by line - Wikipedia&lt;/a&gt;&lt;/div&gt;&lt;div&gt;&lt;a href=&quot;https://www.railway.gov.lk/web/index.php?option=com_content&amp;amp;view=article&amp;amp;id=162&amp;amp;Itemid=186&amp;amp;lang=en&quot;&gt;Railway Network&lt;/a&gt;&lt;/div&gt;&lt;div&gt;&lt;a href=&quot;https://www.railway.gov.lk/web/index.php?option=com_content&amp;amp;view=article&amp;amp;id=165&amp;amp;Itemid=191&amp;amp;lang=en&quot;&gt;Station Details&lt;/a&gt;&lt;/div&gt;&lt;div&gt;&lt;br&gt;&lt;/div&gt;" style="rounded=1;arcSize=10;whiteSpace=wrap;html=1;align=center;" vertex="1" parent="1">
          <mxGeometry x="2920" y="2270" width="280" height="140" as="geometry" />
        </mxCell>
      </root>
    </mxGraphModel>
  </diagram>
</mxfile>
